<?xml version="1.0" encoding="utf-8"?>
<!-- Generator: Adobe Illustrator 27.5.0, SVG Export Plug-In . SVG Version: 6.00 Build 0)  -->
<svg version="1.1" xmlns="http://www.w3.org/2000/svg" xmlns:xlink="http://www.w3.org/1999/xlink" x="0px" y="0px"
	 viewBox="0 0 750 500" style="enable-background:new 0 0 750 500;" xml:space="preserve">
<g id="BACKGROUND">
</g>
<g id="OBJECTS">
	<path style="fill:#E5E6F8;" d="M624.663,307.197c11.586-15.18,18.473-34.14,18.473-54.711c0-49.852-40.413-90.264-90.264-90.264
		c-28.513,0-53.932,13.225-70.474,33.871C463.053,146.856,415.096,112,358.995,112c-55.734,0-103.426,34.405-123.015,83.133
		c-11.78-6.375-25.265-10.002-39.601-10.002c-46.029,0-83.344,37.314-83.344,83.344c0,18.994,6.358,36.5,17.057,50.517
		c-48.549,0.759-87.673,40.344-87.673,89.074c0,19.837,6.486,38.157,17.45,52.962h61.669h473.105h106.074
		c11.873-16.035,18.898-35.876,18.898-57.36C719.616,350.891,677.243,308.019,624.663,307.197z"/>
	<g>
		<line style="fill:none;stroke:#00C0CB;stroke-width:2;stroke-miterlimit:10;" x1="156" y1="394" x2="617" y2="394"/>
		<polyline style="fill:none;stroke:#00C0CB;stroke-width:2;stroke-miterlimit:10;" points="224,237 317,394 374,172 		"/>
		<line style="fill:none;stroke:#00C0CB;stroke-width:2;stroke-miterlimit:10;" x1="537" y1="252" x2="317" y2="394"/>
	</g>
	<g>
		<g>
			<circle style="fill:#FFFFFF;" cx="615.774" cy="395.839" r="57"/>
			<path style="fill:#00C0CB;" d="M615.774,342.839c29.271,0,53,23.729,53,53c0,29.271-23.729,53-53,53c-29.271,0-53-23.729-53-53
				C562.774,366.568,586.503,342.839,615.774,342.839 M615.774,334.839c-33.635,0-61,27.365-61,61s27.365,61,61,61s61-27.365,61-61
				S649.409,334.839,615.774,334.839L615.774,334.839z"/>
		</g>
		<g>
			<g>
				<polyline style="fill:none;stroke:#00C0CB;stroke-width:1.9733;stroke-miterlimit:10;" points="588.519,406.339 
					588.519,386.839 643.521,386.839 643.521,406.339 				"/>
				
					<line style="fill:none;stroke:#00C0CB;stroke-width:1.9733;stroke-miterlimit:10;" x1="615.523" y1="363.839" x2="615.523" y2="436.339"/>
			</g>
			<g>
				<g>
					<g>
						<path style="fill:#FF6A81;" d="M581.302,403.403c0,3.712,3.01,6.722,6.722,6.722c3.713,0,6.722-3.01,6.722-6.722
							c0-3.713-3.009-6.722-6.722-6.722C584.311,396.681,581.302,399.69,581.302,403.403z"/>
						<path style="fill:#221276;" d="M597.501,430.181V418.5c0-3.652-2.96-6.612-6.612-6.612h-5.73c-3.652,0-6.612,2.96-6.612,6.612
							v11.681H597.501z"/>
					</g>
					<g>
						<path style="fill:#FF6A81;" d="M636.802,403.403c0,3.712,3.01,6.722,6.722,6.722c3.713,0,6.722-3.01,6.722-6.722
							c0-3.713-3.009-6.722-6.722-6.722C639.811,396.681,636.802,399.69,636.802,403.403z"/>
						<path style="fill:#221276;" d="M653.001,430.181V418.5c0-3.652-2.96-6.612-6.612-6.612h-5.73c-3.652,0-6.612,2.96-6.612,6.612
							v11.681H653.001z"/>
					</g>
					<g>
						<path style="fill:#FF6A81;" d="M608.801,412.903c0,3.712,3.009,6.722,6.722,6.722c3.712,0,6.722-3.01,6.722-6.722
							c0-3.713-3.01-6.722-6.722-6.722C611.81,406.181,608.801,409.19,608.801,412.903z"/>
						<path style="fill:#221276;" d="M625,439.681V428c0-3.652-2.96-6.612-6.612-6.612h-5.73c-3.652,0-6.612,2.96-6.612,6.612
							v11.681H625z"/>
					</g>
				</g>
				<g>
					<path style="fill:#FF6A81;" d="M608.801,353.903c0,3.712,3.009,6.722,6.722,6.722c3.712,0,6.722-3.01,6.722-6.722
						c0-3.713-3.01-6.722-6.722-6.722C611.81,347.181,608.801,350.19,608.801,353.903z"/>
					<path style="fill:#221276;" d="M625,380.681V369c0-3.652-2.96-6.612-6.612-6.612h-5.73c-3.652,0-6.612,2.96-6.612,6.612v11.681
						H625z"/>
				</g>
			</g>
		</g>
	</g>
	<g>
		<g>
			<circle style="fill:#FFFFFF;" cx="533" cy="252" r="57"/>
			<path style="fill:#00C0CB;" d="M533,199c29.271,0,53,23.729,53,53s-23.729,53-53,53c-29.271,0-53-23.729-53-53
				S503.729,199,533,199 M533,191c-33.636,0-61,27.365-61,61s27.364,61,61,61s61-27.365,61-61S566.635,191,533,191L533,191z"/>
		</g>
		<g>
			<g>
				<rect x="501" y="221.526" style="fill:#EA7F36;" width="45" height="63.474"/>
				<rect x="510" y="213" style="fill:#FFA865;" width="45" height="63.474"/>
			</g>
			<g>
				<g>
					<g>
						<g>
							
								<rect x="572.123" y="239.063" transform="matrix(0.728 -0.6855 0.6855 0.728 -28.1257 466.5539)" style="fill:#221276;" width="3.664" height="59.325"/>
						</g>
					</g>
					<path style="fill:#FF6A81;" d="M596.586,285.642c1.85,1.964,1.757,5.056-0.208,6.906l0,0c-1.964,1.85-5.056,1.757-6.906-0.208
						l-17.683-18.798c-1.85-1.964-1.757-5.056,0.208-6.906l0,0c1.964-1.85,5.056-1.757,6.906,0.208L596.586,285.642z"/>
				</g>
				<g>
					<g>
						<path style="fill:#00C0CB;" d="M538.186,261.663c8.029,8.527,21.451,8.931,29.978,0.902
							c8.527-8.029,8.931-21.451,0.902-29.978c-8.029-8.527-21.451-8.931-29.978-0.901
							C530.56,239.715,530.156,253.136,538.186,261.663z"/>
						<g>
							<defs>
								<path id="SVGID_1_" d="M538.186,261.663c8.029,8.527,21.451,8.931,29.978,0.902c8.527-8.029,8.931-21.451,0.902-29.978
									c-8.029-8.527-21.451-8.931-29.978-0.901C530.56,239.715,530.156,253.136,538.186,261.663z"/>
							</defs>
							<clipPath id="SVGID_00000021806889499475640590000009413341367850220975_">
								<use xlink:href="#SVGID_1_"  style="overflow:visible;"/>
							</clipPath>
							
								<rect x="512.655" y="239.302" transform="matrix(0.685 -0.7285 0.7285 0.685 -3.9253 479.8689)" style="clip-path:url(#SVGID_00000021806889499475640590000009413341367850220975_);fill:#FFFFFF;" width="80.691" height="10.345"/>
							
								<rect x="521.4" y="248.579" transform="matrix(0.685 -0.7285 0.7285 0.685 -6.063 488.3586)" style="clip-path:url(#SVGID_00000021806889499475640590000009413341367850220975_);fill:#FFFFFF;" width="80.691" height="5.224"/>
							
								<rect x="510.034" y="233.754" transform="matrix(0.685 -0.7285 0.7285 0.685 2.1727 474.9874)" style="clip-path:url(#SVGID_00000021806889499475640590000009413341367850220975_);fill:#FFFFFF;" width="80.691" height="2.454"/>
						</g>
					</g>
					<path style="fill:#221276;" d="M569.582,264.071c-9.344,8.798-24.104,8.354-32.902-0.989
						c-8.798-9.344-8.354-24.104,0.989-32.902c9.344-8.798,24.104-8.354,32.903,0.989
						C579.37,240.512,578.926,255.273,569.582,264.071z M540.506,233.192c-7.683,7.234-8.048,19.37-0.813,27.053
						c7.234,7.683,19.37,8.048,27.053,0.814c7.683-7.234,8.048-19.37,0.814-27.053C560.324,226.322,548.189,225.957,540.506,233.192
						z"/>
				</g>
			</g>
		</g>
	</g>
	<g>
		<g>
			<circle style="fill:#FFFFFF;" cx="375" cy="180" r="57"/>
			<path style="fill:#00C0CB;" d="M375,127c29.271,0,53,23.729,53,53s-23.729,53-53,53c-29.271,0-53-23.729-53-53
				S345.729,127,375,127 M375,119c-33.636,0-61,27.365-61,61s27.364,61,61,61s61-27.365,61-61S408.635,119,375,119L375,119z"/>
		</g>
		<g>
			<g>
				<path style="fill:#FF6A81;" d="M375.032,139.461c-0.087-0.001-0.173-0.007-0.26-0.007c-22.393,0-40.545,18.153-40.545,40.545
					s18.153,40.545,40.545,40.545c0.087,0,0.173-0.006,0.26-0.007V139.461z"/>
				<path style="fill:#FFA865;" d="M374.967,220.539c0.087,0.001,0.173,0.007,0.26,0.007c22.393,0,40.545-18.153,40.545-40.545
					s-18.153-40.545-40.545-40.545c-0.087,0-0.173,0.006-0.26,0.007V220.539z"/>
				<path style="fill:#00C0CB;" d="M374.967,220.539c0.087,0.001,0.173,0.007,0.26,0.007c22.393,0,40.545-18.153,40.545-40.545
					c0-0.044-0.003-0.086-0.003-0.13h-40.802V220.539z"/>
				<path style="fill:#6258CC;" d="M374.967,179.87v40.669c0.087,0.001,0.173,0.007,0.26,0.007c11.399,0,21.693-4.711,29.059-12.283
					L374.967,179.87z"/>
			</g>
			<g>
				<g>
					<g>
						<line style="fill:none;stroke:#221276;stroke-miterlimit:10;" x1="331.382" y1="249.087" x2="386.5" y2="203"/>
						<circle style="fill:#FFFFFF;stroke:#221276;stroke-miterlimit:10;" cx="386.5" cy="203" r="3.5"/>
					</g>
					<g>
						<path style="fill:#221276;" d="M346.167,251c0,2.761-2.239,5-5,5h-37.5c-2.762,0-5-2.239-5-5v-7.5c0-2.761,2.238-5,5-5h37.5
							c2.761,0,5,2.239,5,5V251z"/>
						<g>
							
								<line style="fill:none;stroke:#FFFFFF;stroke-linecap:round;stroke-linejoin:round;stroke-miterlimit:10;" x1="305.667" y1="244.497" x2="339.167" y2="244.497"/>
							
								<line style="fill:none;stroke:#FFFFFF;stroke-linecap:round;stroke-linejoin:round;stroke-miterlimit:10;" x1="305.667" y1="249.497" x2="339.167" y2="249.497"/>
						</g>
					</g>
				</g>
				<g>
					<g>
						<line style="fill:none;stroke:#221276;stroke-miterlimit:10;" x1="476.211" y1="178.772" x2="405.5" y2="191.5"/>
						<path style="fill:#FFFFFF;stroke:#221276;stroke-miterlimit:10;" d="M407.975,193.975c1.367-1.367,1.367-3.583,0-4.95
							c-1.367-1.367-3.583-1.367-4.95,0c-1.367,1.367-1.367,3.583,0,4.95C404.392,195.342,406.608,195.342,407.975,193.975z"/>
					</g>
					<g>
						<path style="fill:#221276;" d="M504.667,185.5c0,2.761-2.239,5-5,5h-37.5c-2.762,0-5-2.239-5-5V178c0-2.761,2.238-5,5-5h37.5
							c2.761,0,5,2.239,5,5V185.5z"/>
						<g>
							
								<line style="fill:none;stroke:#FFFFFF;stroke-linecap:round;stroke-linejoin:round;stroke-miterlimit:10;" x1="464.167" y1="178.997" x2="497.667" y2="178.997"/>
							
								<line style="fill:none;stroke:#FFFFFF;stroke-linecap:round;stroke-linejoin:round;stroke-miterlimit:10;" x1="464.167" y1="183.997" x2="497.667" y2="183.997"/>
						</g>
					</g>
				</g>
				<g>
					<g>
						<line style="fill:none;stroke:#221276;stroke-miterlimit:10;" x1="460.887" y1="125.547" x2="403.303" y2="168.514"/>
						<path style="fill:#FFFFFF;stroke:#221276;stroke-miterlimit:10;" d="M406.623,169.623c0.613-1.833-0.377-3.816-2.211-4.429
							c-1.833-0.613-3.816,0.377-4.429,2.211c-0.613,1.833,0.377,3.816,2.211,4.429C404.027,172.446,406.01,171.457,406.623,169.623
							z"/>
					</g>
					<g>
						<path style="fill:#221276;" d="M498.667,134.5c0,2.761-2.239,5-5,5h-37.5c-2.762,0-5-2.239-5-5V127c0-2.761,2.238-5,5-5h37.5
							c2.761,0,5,2.239,5,5V134.5z"/>
						<g>
							
								<line style="fill:none;stroke:#FFFFFF;stroke-linecap:round;stroke-linejoin:round;stroke-miterlimit:10;" x1="458.167" y1="127.997" x2="491.667" y2="127.997"/>
							
								<line style="fill:none;stroke:#FFFFFF;stroke-linecap:round;stroke-linejoin:round;stroke-miterlimit:10;" x1="458.167" y1="132.997" x2="491.667" y2="132.997"/>
						</g>
					</g>
				</g>
				<g>
					<g>
						<line style="fill:none;stroke:#221276;stroke-miterlimit:10;" x1="301.58" y1="126.892" x2="364.358" y2="161.832"/>
						<path style="fill:#FFFFFF;stroke:#221276;stroke-miterlimit:10;" d="M364.011,158.349c-1.923,0.192-3.327,1.907-3.135,3.83
							c0.192,1.923,1.907,3.327,3.83,3.135c1.923-0.192,3.327-1.907,3.135-3.83C367.649,159.561,365.934,158.157,364.011,158.349z"
							/>
					</g>
					<g>
						<path style="fill:#221276;" d="M310.66,133.002c0,2.761-2.239,5-5,5h-37.5c-2.762,0-5-2.239-5-5v-7.5c0-2.761,2.238-5,5-5
							h37.5c2.761,0,5,2.239,5,5V133.002z"/>
						<g>
							
								<line style="fill:none;stroke:#FFFFFF;stroke-linecap:round;stroke-linejoin:round;stroke-miterlimit:10;" x1="270.16" y1="126.499" x2="303.66" y2="126.499"/>
							
								<line style="fill:none;stroke:#FFFFFF;stroke-linecap:round;stroke-linejoin:round;stroke-miterlimit:10;" x1="270.16" y1="131.499" x2="303.66" y2="131.499"/>
						</g>
					</g>
				</g>
			</g>
		</g>
	</g>
	<g>
		<g>
			<circle style="fill:#FFFFFF;" cx="228" cy="237" r="57"/>
			<path style="fill:#00C0CB;" d="M228,184c29.271,0,53,23.729,53,53s-23.729,53-53,53c-29.271,0-53-23.729-53-53
				S198.729,184,228,184 M228,176c-33.636,0-61,27.365-61,61s27.364,61,61,61s61-27.365,61-61S261.635,176,228,176L228,176z"/>
		</g>
		<g>
			<g>
				<g>
					<g>
						<polygon style="fill:#FFA865;" points="224.788,215.63 214.403,195.953 240.639,197.046 230.801,216.177 						"/>
						<path style="fill:#EA7F36;" d="M219.627,205.851l5.161,9.78l6.012,0.547l6.794-13.21
							C231.586,203.83,225.589,204.752,219.627,205.851z"/>
					</g>
					<rect x="219.384" y="209.901" style="fill:#221276;" width="17.085" height="6.625"/>
				</g>
				<g>
					<path style="fill:#FFA865;" d="M201.021,264.993c0,5.777,4.683,10.461,10.46,10.461h32.079c5.777,0,10.461-4.683,10.461-10.461
						v-41.842c0-5.777-4.683-10.46-10.461-10.46h-32.079c-5.777,0-10.46,4.683-10.46,10.46V264.993z"/>
					<path style="fill:#EA7F36;" d="M243.561,267.085h-32.079c-5.777,0-10.46-4.683-10.46-10.461v8.368
						c0,5.777,4.683,10.461,10.46,10.461h32.079c5.777,0,10.461-4.683,10.461-10.461v-8.368
						C254.021,262.402,249.338,267.085,243.561,267.085z"/>
				</g>
			</g>
			<g>
				<path style="fill:#221276;" d="M224.965,256.474c-0.907,0-1.305-0.398-1.305-1.305v-1.959h-4.968
					c-0.907,0-1.305-0.399-1.305-1.305v-4.243c0-0.906,0.399-1.305,1.305-1.305h9.755c0.616,0,0.943-0.471,0.943-1.051
					c0-0.834-0.327-1.161-0.943-1.233l-5.44-0.761c-3.409-0.508-5.621-1.959-5.621-6.02v-3.808c0-3.771,2.321-5.947,6.274-6.31
					v-2.031c0-0.907,0.399-1.306,1.305-1.306h5.258c0.907,0,1.305,0.399,1.305,1.306v1.958h3.518c0.907,0,1.305,0.399,1.305,1.305
					v4.316c0,0.906-0.399,1.306-1.305,1.306h-8.45c-0.616,0-0.979,0.435-0.979,1.087c0,0.653,0.363,1.088,0.979,1.161L232,237
					c3.409,0.508,5.657,1.959,5.657,6.02v3.808c0,3.699-2.285,5.911-6.129,6.31v2.031c0,0.906-0.399,1.305-1.305,1.305H224.965z"/>
			</g>
		</g>
	</g>
	<g>
		<g>
			<circle style="fill:#FFFFFF;" cx="149.752" cy="389" r="57"/>
			<path style="fill:#00C0CB;" d="M149.753,336c29.271,0,53,23.729,53,53s-23.729,53-53,53s-53-23.729-53-53
				S120.481,336,149.753,336 M149.753,328c-33.636,0-61,27.365-61,61s27.364,61,61,61s61-27.365,61-61S183.388,328,149.753,328
				L149.753,328z"/>
		</g>
		<g>
			<g>
				<g>
					<rect x="116.5" y="399" style="fill:#FFA865;" width="13" height="20.5"/>
					<rect x="134.167" y="385" style="fill:#FF6A81;" width="13" height="34.5"/>
					<rect x="151.833" y="392.5" style="fill:#00C0CB;" width="13" height="27"/>
					<rect x="169.5" y="366" style="fill:#6258CC;" width="13" height="53.5"/>
				</g>
				
					<line style="fill:none;stroke:#221276;stroke-linecap:round;stroke-linejoin:round;stroke-miterlimit:10;" x1="114.002" y1="420" x2="184.002" y2="420"/>
			</g>
			<g>
				<polyline style="fill:none;stroke:#221276;stroke-width:3.6579;stroke-miterlimit:10;" points="161.219,360.408 
					140.643,377.326 136.071,369.553 111,387.5 				"/>
				<polygon style="fill:#221276;" points="151.421,359.466 168.902,352.775 162.122,370.222 159.432,361.773 				"/>
			</g>
		</g>
	</g>
	<g>
		<g>
			<path style="fill:#221276;" d="M514.012,461v-60.631c0-8.085-6.554-14.64-14.64-14.64h-67.831c-8.085,0-14.64,6.554-14.64,14.64
				V461H514.012z"/>
			<path style="fill:#0F0B38;" d="M514.5,461v-63.559c0-6.468-5.244-11.712-11.712-11.712c-6.468,0-11.712,5.243-11.712,11.712V461
				H514.5z"/>
		</g>
		<g>
			<g>
				<g>
					<g>
						<rect x="414.737" y="318.264" style="fill:#FFA865;" width="24.83" height="53.93"/>
						<path style="fill:#EA7F36;" d="M414.737,363.206h4.321c10.453,0,19.075-7.74,20.508-17.797v-27.145h-24.829V363.206z"/>
					</g>
					<g>
						<g>
							<path style="fill:#221276;" d="M417.667,321.134c0,9.021,7.313,16.334,16.334,16.334l0,0c9.021,0,16.334-7.313,16.334-16.334
								v-36.489c0-9.021-7.313-16.334-16.334-16.334l0,0c-9.021,0-16.334,7.313-16.334,16.334V321.134z"/>
							<g>
								<path style="fill:#FFA865;" d="M439.8,335.205c0,11.455-9.286,20.741-20.741,20.741h-10.37
									c-11.455,0-20.741-9.286-20.741-20.741v-49.26c0-11.455,9.286-10.371,20.741-10.371h10.37
									c11.455,0,20.741-1.085,20.741,10.371V335.205z"/>
								
									<ellipse transform="matrix(0.973 -0.2306 0.2306 0.973 -59.5599 109.7116)" style="fill:#FFA865;" cx="439.567" cy="309.653" rx="8.61" ry="8.61"/>
							</g>
						</g>
						<g>
							<path style="fill:#221276;" d="M390.885,290.093h48.396c3.958,0,7.642-1.128,10.787-3.052
								c-1.014-10.509-5.293-18.726-16.068-18.726h-63.787c-0.033,0.388-0.054,0.791-0.061,1.213
								C370.248,280.901,379.489,290.093,390.885,290.093z"/>
							<path style="fill:#221276;" d="M446.438,290.345c0-5.956-0.306-10.785-6.262-10.785h-9.393
								c-5.956,0-10.785,4.828-10.785,10.785s4.829,10.785,10.785,10.785h2.597v13.537h6.622V301.13h0.174
								c5.956,0,8.176-4.828,8.176-10.785H446.438z"/>
							<circle style="fill:#221276;" cx="387.5" cy="272.167" r="17.5"/>
						</g>
					</g>
				</g>
				<g>
					
						<path style="fill:none;stroke:#0F0B38;stroke-width:1.4911;stroke-linecap:round;stroke-linejoin:round;stroke-miterlimit:10;" d="
						M392.519,311.326c0,2.834,2.298,5.132,5.132,5.132c2.834,0,5.132-2.298,5.132-5.132"/>
					
						<path style="fill:none;stroke:#0F0B38;stroke-width:1.4911;stroke-linecap:round;stroke-linejoin:round;stroke-miterlimit:10;" d="
						M415.186,311.326c0,2.834,2.298,5.132,5.132,5.132c2.835,0,5.132-2.298,5.132-5.132"/>
					<polygon style="fill:#EA7F36;" points="409.038,312.181 402.089,326.295 409.038,326.295 					"/>
					<path style="fill:#FFFFFF;" d="M397.855,330.428c0.217,7.514,6.361,13.542,13.928,13.542c7.566,0,13.711-6.028,13.928-13.542
						H397.855z"/>
				</g>
			</g>
			<g>
				<g>
					<path style="fill:#FF6A81;" d="M460.521,371.581h-13.086v-6.543h-39.257v6.543h-13.084c-12.045,0-21.809,9.764-21.809,21.81
						V461h109.046v-67.61C482.331,381.345,472.566,371.581,460.521,371.581z"/>
					<g>
						<polygon style="fill:#ED4867;" points="408.667,460.667 482.331,460.667 482.331,411 447.331,411 						"/>
						<path style="fill:#ED4867;" d="M389.333,372.355c-9.249,2.527-16.049,10.985-16.049,21.035V461h16.049V372.355z"/>
					</g>
				</g>
				<g>
					<path style="fill:#FFA865;" d="M447.435,410.838v22.899h-75.788c-6.926,0-12.54,7.797-12.54,14.723
						c0,6.926,5.614,12.54,12.54,12.54h92.146c6.926,0,12.54-5.614,12.54-12.54v-37.622H447.435z"/>
					<g>
						<rect x="447.435" y="410.838" style="fill:#EA7F36;" width="28.898" height="6.543"/>
						<path style="fill:#EA7F36;" d="M389.373,433.737h-17.726c-6.926,0-12.54,7.797-12.54,14.723c0,6.926,5.614,12.54,12.54,12.54
							h17.726V433.737z"/>
					</g>
				</g>
			</g>
		</g>
		<g>
			<g>
				<path style="fill:#221276;" d="M430.677,452.565h-49.563v-81.199c0-2.912-2.361-5.273-5.273-5.273H254.421
					c-2.912,0-5.273,2.361-5.273,5.273v84.362c0,2.912,2.361,5.273,5.273,5.273h40.222h81.199h54.836
					c2.33,0,4.218-1.889,4.218-4.218C434.895,454.453,433.006,452.565,430.677,452.565z"/>
				<path style="fill:#0F0B38;" d="M430.677,452.565h-49.563v-81.199c0-2.912-2.361-5.273-5.273-5.273h-2.534v94.908h2.534h54.836
					c2.33,0,4.218-1.889,4.218-4.218C434.895,454.453,433.006,452.565,430.677,452.565z"/>
			</g>
			<path style="fill:#00C0CB;" d="M337.393,420.375c0.49-1.784,0.781-3.63,0.866-5.487l-3.762-0.171
				c0.015-0.326,0.023-0.653,0.023-0.981c0-1.26-0.11-2.504-0.323-3.72l3.706-0.654c-0.323-1.83-0.853-3.626-1.574-5.339
				l-3.465,1.459c-0.609-1.448-1.382-2.829-2.308-4.118l3.06-2.19c-1.077-1.504-2.323-2.892-3.704-4.125l-2.508,2.81
				c-1.188-1.062-2.475-1.977-3.841-2.737l1.826-3.287c-1.625-0.902-3.353-1.623-5.134-2.142l-1.052,3.612
				c-1.502-0.436-3.06-0.706-4.652-0.802l0.229-3.76c-0.509-0.031-1.026-0.047-1.537-0.047c-1.857,0-3.712,0.205-5.512,0.61
				l0.826,3.67c-1.547,0.346-3.044,0.864-4.467,1.543l-1.618-3.393c-1.671,0.797-3.258,1.784-4.716,2.932l2.329,2.957
				c-0.656,0.518-1.286,1.077-1.886,1.677c-0.522,0.522-1.012,1.066-1.472,1.63l-2.921-2.375c-1.17,1.44-2.181,3.01-3.004,4.669
				l3.368,1.671c-0.702,1.414-1.242,2.902-1.612,4.442l-3.658-0.883c-0.433,1.796-0.667,3.648-0.695,5.505l3.767,0.057
				c-0.002,0.109-0.004,0.218-0.004,0.327c0,1.484,0.152,2.945,0.447,4.365l-3.684,0.769c0.38,1.819,0.964,3.598,1.739,5.287
				l3.418-1.566c0.653,1.426,1.468,2.782,2.434,4.043l-2.992,2.284c1.122,1.471,2.41,2.819,3.828,4.009l2.42-2.885
				c1.218,1.024,2.533,1.9,3.924,2.618l-1.723,3.342c1.652,0.852,3.402,1.519,5.2,1.982l0.939-3.643
				c1.512,0.388,3.077,0.611,4.671,0.659l-0.114,3.765c0.255,0.008,0.513,0.012,0.768,0.012c1.596,0,3.196-0.152,4.755-0.452
				l-0.712-3.696c1.559-0.298,3.071-0.768,4.513-1.402l1.512,3.441c1.696-0.745,3.313-1.683,4.806-2.786l-2.236-3.026
				c0.845-0.626,1.649-1.319,2.406-2.076c0.365-0.365,0.715-0.742,1.05-1.128l2.847,2.464c1.213-1.402,2.272-2.941,3.145-4.572
				l-3.314-1.774c0.747-1.393,1.333-2.863,1.75-4.389L337.393,420.375z M313.232,426.149c-6.855,0-12.413-5.557-12.413-12.413
				s5.557-12.413,12.413-12.413s12.413,5.557,12.413,12.413S320.087,426.149,313.232,426.149z"/>
		</g>
	</g>
	<g>
		<path style="fill:#00C0CB;" d="M549.815,81.816c0,5.807-4.708,10.515-10.515,10.515H210.7c-5.807,0-10.515-4.708-10.515-10.515
			v-4.205c0-5.807,4.708-10.515,10.515-10.515H539.3c5.807,0,10.515,4.708,10.515,10.515V81.816z"/>
	</g>
</g>
<g id="TEXTS">
	<rect x="200.622" y="74.172" style="fill:none;" width="348.756" height="18.927"/>
	<text transform="matrix(1 0 0 1 219.5776 85.4595)" style="fill:#FFFFFF; font-family:'Bungee-Regular'; font-size:15.6772px;">Enterprise resource planning</text>
	<rect x="286.192" y="20" style="fill:none;" width="177.616" height="43.098"/>
	
		<text transform="matrix(1 0 0 1 318.346 57.4395)" style="fill:#00C0CB; font-family:'Bungee-Regular'; font-size:52px; letter-spacing:2;">Erp</text>
</g>
</svg>
