<svg xmlns="http://www.w3.org/2000/svg" width="212" height="54.15" viewBox="0 0 212 54.15">
  <g id="amrita_logo" data-name="amrita logo" transform="translate(-3.64 -1.02)">
    <g id="Group_135044" data-name="Group 135044" transform="translate(3.64 1.02)">
      <path id="Path_118199" data-name="Path 118199" d="M120.615,47.366H5.572A1.93,1.93,0,0,1,3.64,45.434V2.952A1.93,1.93,0,0,1,5.572,1.02H120.624a1.93,1.93,0,0,1,1.932,1.932V45.425A1.944,1.944,0,0,1,120.615,47.366Z" transform="translate(-3.64 -1.02)" fill="#f58220"/>
      <g id="Group_135037" data-name="Group 135037" transform="translate(34.063 6.137)">
        <g id="Group_135036" data-name="Group 135036">
          <path id="Path_118200" data-name="Path 118200" d="M50.3,8.2,44.576,20.782c-.265.573-.778,1.445-1.086,1.957h.145A2.157,2.157,0,0,0,45.7,21.56c.12-.205.214-.419.308-.624l.034-.068,1.419-3.111h4.453l1.427,3.12c.41.872.872,1.863,3.633,1.863h.145a20.088,20.088,0,0,1-1.086-1.957Zm-2.351,8.479,1.727-3.8,1.735,3.8Z" transform="translate(-43.49 -8.2)" fill="#fff"/>
          <path id="Path_118201" data-name="Path 118201" d="M76.087,8.2,71.1,19.295,65.838,8.2,61.47,20.705a21.079,21.079,0,0,1-.88,2.034H60.7c1.539,0,1.94-1.18,2.205-1.957l2.624-7.471,5.026,10.5,4.718-10.5,2.633,7.5c.325.9.692,1.923,3.325,1.923h.1s-.556-1.128-.88-2.034Z" transform="translate(-45.973 -8.2)" fill="#fff"/>
          <path id="Path_118202" data-name="Path 118202" d="M101.66,10.929V22.768h2.71V10.929a13.5,13.5,0,0,1,.188-2.034l.043-.265h-.265C101.66,8.63,101.66,9.955,101.66,10.929Z" transform="translate(-51.938 -8.262)" fill="#fff"/>
          <path id="Path_118203" data-name="Path 118203" d="M119.027,10.023a1.243,1.243,0,0,0,1.162-1.393H107.12a1.25,1.25,0,0,0,1.171,1.393c.487-.009.889-.026,1.265-.034.564-.017,1.1-.043,1.915-.043h.735v12.8h2.9V9.946h.735c.812,0,1.342.017,1.915.043C118.138,10,118.531,10.015,119.027,10.023Z" transform="translate(-52.731 -8.262)" fill="#fff"/>
          <path id="Path_118204" data-name="Path 118204" d="M96.189,21.282l-3.6-4.812a4.189,4.189,0,0,0,3.8-4.291c-.12-2.2-2.111-3.539-4.522-3.539-1.786,0-3.445.077-5.086.077a10.994,10.994,0,0,1,.188,1.88L86.9,20.744a14.982,14.982,0,0,1-.188,2.069c2.445,0,2.445-1.128,2.445-2.069l.077-11.027c1,0,1.624-.043,2.257-.034a2.709,2.709,0,0,1,2.71,2.539c.179,1.675-.4,2.923-1.624,3.47A9.56,9.56,0,0,1,89.736,16l3.975,5.342c.564.752,1.333,1.47,3.8,1.47A17.11,17.11,0,0,1,96.189,21.282Z" transform="translate(-49.767 -8.264)" fill="#fff"/>
          <path id="Path_118205" data-name="Path 118205" d="M132.549,20.782,126.823,8.2,121.1,20.782c-.265.573-.778,1.445-1.086,1.957h.145a2.157,2.157,0,0,0,2.069-1.18c.12-.205.214-.419.308-.624l.034-.068,1.419-3.111h4.453l1.427,3.12c.41.872.872,1.863,3.633,1.863h.145A21.379,21.379,0,0,1,132.549,20.782Zm-8.069-4.1,1.727-3.8,1.735,3.8Z" transform="translate(-54.603 -8.2)" fill="#fff"/>
        </g>
      </g>
      <g id="Group_135039" data-name="Group 135039" transform="translate(5.791 24.939)">
        <g id="Group_135038" data-name="Group 135038">
          <path id="Path_118206" data-name="Path 118206" d="M28.741,37.34l-.111.47.385-.077Z" transform="translate(-13.06 -31.233)" fill="#fff"/>
          <path id="Path_118207" data-name="Path 118207" d="M19.995,37.17a.172.172,0,0,0,.111-.128.155.155,0,0,0-.034-.162.422.422,0,0,0-.2-.1l-.043-.017-.1.376.06.017A.349.349,0,0,0,19.995,37.17Z" transform="translate(-11.767 -31.149)" fill="#fff"/>
          <path id="Path_118208" data-name="Path 118208" d="M24.915,37.68l-.205.436.393.009Z" transform="translate(-12.491 -31.283)" fill="#fff"/>
          <path id="Path_118209" data-name="Path 118209" d="M31.4,36.63l-.043.479.376-.137Z" transform="translate(-13.456 -31.13)" fill="#fff"/>
          <path id="Path_118210" data-name="Path 118210" d="M27.394,38.248a.564.564,0,0,0,.368-.154.383.383,0,0,0,.094-.325.378.378,0,0,0-.171-.291.6.6,0,0,0-.385-.06l-.06.009.1.829Z" transform="translate(-12.858 -31.244)" fill="#fff"/>
          <path id="Path_118211" data-name="Path 118211" d="M36.477,33.5l-.017.479.359-.137Z" transform="translate(-14.197 -30.676)" fill="#fff"/>
          <path id="Path_118212" data-name="Path 118212" d="M22.276,37.46l-.256.41.385.06Z" transform="translate(-12.1 -31.251)" fill="#fff"/>
          <path id="Path_118213" data-name="Path 118213" d="M15.355,34.09l-.325.35.359.128Z" transform="translate(-11.085 -30.761)" fill="#fff"/>
          <path id="Path_118214" data-name="Path 118214" d="M11.146,33.55a4.929,4.929,0,0,1-.231.479,3.9,3.9,0,0,0-.359.863c-.026.12-.094,1.077.1,1.145.034.009.1.017.162-.094.205-.4.539-.829.752-.846a.181.181,0,0,1,.154.094,1.379,1.379,0,0,1,.137.3c.06.154.085.222.171.205s.077-.1.077-.18a3.974,3.974,0,0,1,.274-1.316c.385.145.778.256,1.154.359a9.176,9.176,0,0,1,1.5.513l-.12.12a.485.485,0,0,0-.137.368.446.446,0,0,0,.188.316,14.473,14.473,0,0,0,8.018,2.077c2.017,0,5.778-.3,8.317-2.3a.249.249,0,0,0,.094-.18.551.551,0,0,0-.128-.35l-.094-.111a8.541,8.541,0,0,1,1.573-.539,11.935,11.935,0,0,0,1.154-.359,3.974,3.974,0,0,1,.274,1.316c0,.068,0,.162.077.18s.111-.051.171-.205a3.185,3.185,0,0,1,.137-.3c.06-.094.12-.1.154-.094.214.009.556.436.752.846.06.111.12.111.162.094.2-.068.137-1.026.1-1.145a3.835,3.835,0,0,0-.359-.863c-.077-.154-.162-.316-.231-.479A5.7,5.7,0,0,0,35.6,33.1c.479-.436.2-1.009-.034-1.479l-.043-.094a1.216,1.216,0,0,1-.077-.684c.017-.2.034-.385-.085-.5s-.308-.154-.65-.137h0c-.709.06-1.154.641-1.239,1.65-.06.026-.12.06-.18.085a13.325,13.325,0,0,1-2.778.795,4.261,4.261,0,0,0-.923.239.517.517,0,0,0-.145.462.285.285,0,0,0,0,.085c0,.017.009.026.009.034a1.1,1.1,0,0,0,.051.3,2.035,2.035,0,0,1,.043.222c-1.171,1-3.735,1.667-6.556,1.667a11.729,11.729,0,0,1-6.308-1.479c.085-.274.282-1.009,0-1.188a3.78,3.78,0,0,0-.923-.239,13.325,13.325,0,0,1-2.778-.795c-.06-.026-.12-.06-.18-.085-.094-1.017-.53-1.6-1.239-1.65h-.009a.83.83,0,0,0-.641.137.621.621,0,0,0-.085.5,1.216,1.216,0,0,1-.077.684l-.043.094c-.231.462-.513,1.043-.034,1.479C10.838,33.319,10.983,33.439,11.146,33.55Zm23.224-1.5.128-.051.427,1-.128.051-.205-.479-.479.205.205.479-.128.051-.427-1,.128-.051.171.4.479-.205Zm.9,1.949a3.468,3.468,0,0,1,.342.821,3.3,3.3,0,0,1,0,.872c-.18-.342-.53-.846-.855-.863h-.017a.334.334,0,0,0-.282.171c-.034.06-.068.128-.1.2a4.951,4.951,0,0,0-.274-1.154,5.234,5.234,0,0,0,.966-.5C35.113,33.7,35.19,33.849,35.267,33.995Zm-.521-3.658c.162,0,.171.068.18.094.051.239-.419.838-1.257,1.308C33.737,31.174,33.968,30.4,34.746,30.336Zm-1.128,2.043.043.111-.239.1.368.889-.128.051-.368-.889-.239.094L33,32.627Zm-1.034.368.9.863-.137.051-.205-.205-.462.18-.017.3-.137.051Zm-.838,1.239.051-.94.607.992-.128.051-.368-.624-.051.8-.564-.581.128.718-.128.051L31.1,33.311Zm-1.59,1.855-.5-.966.12-.06.5.966Zm-.427-2.359c.06-.009.12-.026.145-.009s.026.034.034.077c.017.111-.077.231-.2.359a2.171,2.171,0,0,1-.077-.4Zm-.812,1.735.436.316.06-.539.145-.06-.085.709.188.436-.128.051-.188-.436-.573-.419Zm-.658.2.872.889-.145.051-.214-.214-.479.171-.026.3-.137.051Zm-.872,1.162.145-.932.513,1.043-.137.034-.308-.658-.137.8-.513-.624.06.727L26.873,37,26.8,35.841Zm-1.351-.564.735,1.017-.145.026-.171-.248-.5.094-.077.291-.145.026Zm-1.171.222a.7.7,0,0,1,.47.085.475.475,0,0,1,.214.376.5.5,0,0,1-.12.419.7.7,0,0,1-.436.205l-.222.026-.137-1.077Zm-.957.462c.145.128.291.265.436.4l-.043-.8.137-.009.068,1.128-.88-.8.043.812-.137.009-.068-1.137C23.608,36.431,23.754,36.559,23.907,36.7Zm-1.068-.4.513,1.137H23.2l-.12-.274-.5-.009-.128.274H22.3ZM21.258,36.2c.128.154.248.308.376.462s.256.308.376.462l.068-.8.137.009-.094,1.128-.761-.923-.068.812-.137-.009Zm-.265,1.111-.145-.026-.085-.291-.5-.077-.162.248-.145-.026.692-1.043Zm-1.547-1.376.65.137-.026.12-.256-.051-.2.94-.137-.026.2-.94-.256-.051Zm-.274-.068.137.034-.256,1.06-.137-.034Zm-.795-.214.205.06a.47.47,0,0,1,.256.154.278.278,0,0,1,.043.248.3.3,0,0,1-.12.171.321.321,0,0,1-.222.051l.205.547-.162-.043-.188-.53-.06-.017-.128.444-.137-.034Zm-1.06-.41.077.94.641-.692-.162,1.154-.137-.043.111-.718-.556.59-.068-.8-.359.633-.137-.043ZM16.3,33.73a.148.148,0,0,1,.162-.111.526.526,0,0,1,.111.009c.034,0,.068.009.094.009a1.229,1.229,0,0,1-.068.282l-.051.18c-.017-.009-.026-.026-.043-.034C16.351,33.926,16.257,33.841,16.3,33.73Zm.291,1.231.043,1.248-.137-.06-.009-.3-.47-.2-.222.205-.137-.06Zm-4.624.35a2.069,2.069,0,0,0-.1-.2.306.306,0,0,0-.3-.171c-.325.017-.675.521-.855.863a3.711,3.711,0,0,1,0-.872,3.468,3.468,0,0,1,.342-.821c.077-.145.154-.3.222-.462a5.422,5.422,0,0,0,.966.5A4.951,4.951,0,0,0,11.966,35.311Zm2.932-.829-.137-.051-.026-.3-.47-.162-.205.214-.137-.051.863-.906ZM13.607,33l.043-.12.615.222-.043.12-.239-.085-.333.906L13.522,34l.325-.906Zm-.385-.325.077,1.248-.137-.051-.017-.3-.462-.18-.214.205-.137-.051Zm-1.829-2.145c.009-.026.017-.094.18-.094.752.051,1,.752,1.077,1.393C11.812,31.37,11.342,30.772,11.394,30.533Zm.427,1.521-.034.94.709-.615-.291,1.12-.128-.051.2-.7-.615.521.026-.8-.427.59-.128-.06Z" transform="translate(-10.414 -30.196)" fill="#fff"/>
          <path id="Path_118215" data-name="Path 118215" d="M17.45,36.09l-.35.325.359.154Z" transform="translate(-11.385 -31.052)" fill="#fff"/>
          <path id="Path_118216" data-name="Path 118216" d="M13.513,33.42l-.333.342.359.137Z" transform="translate(-10.816 -30.664)" fill="#fff"/>
        </g>
      </g>
      <g id="Group_135042" data-name="Group 135042" transform="translate(7.346 6.06)">
        <path id="Path_118217" data-name="Path 118217" d="M28.416,25.647l-.376.128a.972.972,0,0,0,.5.12h.043a.32.32,0,0,1,.094.009H34.04c.06-.145.111-.3.162-.453H28.878A2.273,2.273,0,0,1,28.416,25.647Z" transform="translate(-14.53 -10.628)" fill="#fff"/>
        <path id="Path_118218" data-name="Path 118218" d="M20.55,25.894h.043a.972.972,0,0,0,.5-.12l-.376-.128a2.273,2.273,0,0,1-.462-.2H14.9c.051.154.1.3.162.453h5.394C20.482,25.9,20.507,25.894,20.55,25.894Z" transform="translate(-12.621 -10.628)" fill="#fff"/>
        <path id="Path_118219" data-name="Path 118219" d="M28.5,26.449a2.23,2.23,0,0,1-1.06.265h-.009a.367.367,0,0,1-.1-.017,2.174,2.174,0,0,1-.7.2h6.83c.077-.145.145-.3.214-.453H28.51A.008.008,0,0,1,28.5,26.449Z" transform="translate(-14.325 -10.772)" fill="#fff"/>
        <path id="Path_118220" data-name="Path 118220" d="M21.655,26.7a.217.217,0,0,1-.1.017h-.017a2.193,2.193,0,0,1-1.051-.265.03.03,0,0,0-.017-.009h-5.2c.068.154.137.3.214.453h6.864A2.037,2.037,0,0,1,21.655,26.7Z" transform="translate(-12.675 -10.772)" fill="#fff"/>
        <path id="Path_118221" data-name="Path 118221" d="M13.008,20.051a.881.881,0,0,0-.547.385c-.462.7-.12,2.12.145,3.265.094.41.188.795.222,1.086a.942.942,0,0,1,.017.154,2.707,2.707,0,0,1,.026,1.009l-.026.077.077.017a2.714,2.714,0,0,1,.855.53,1.223,1.223,0,0,0,.128.094,10.821,10.821,0,0,1,.821.735c.838.786,1.872,1.761,2.693,1.761h.06a.91.91,0,0,0,.615-.291.9.9,0,0,0,.06.667c.376.744,1.778,1.162,2.906,1.5.4.12.786.231,1.051.342.051.017.094.043.145.06a2.732,2.732,0,0,1,.88.479l.051.06.06-.06a2.929,2.929,0,0,1,.88-.479c.051-.017.1-.043.145-.06.265-.111.65-.222,1.051-.342,1.128-.333,2.522-.761,2.906-1.5a.88.88,0,0,0,.06-.675.937.937,0,0,0,.607.282h.06c.829,0,1.863-.974,2.693-1.761.308-.291.6-.564.821-.735.043-.034.085-.06.128-.094a2.714,2.714,0,0,1,.855-.53l.077-.017-.026-.077a2.664,2.664,0,0,1,.026-1l.026-.154c.034-.291.128-.675.222-1.086.274-1.145.607-2.564.145-3.265a.946.946,0,0,0-.556-.393.881.881,0,0,0,.547-.385c.462-.7.12-2.12-.145-3.265-.094-.41-.188-.795-.222-1.086l-.026-.154a2.664,2.664,0,0,1-.026-1l.026-.077-.077-.017a2.714,2.714,0,0,1-.855-.53,1.223,1.223,0,0,0-.128-.094,10.821,10.821,0,0,1-.821-.735c-.838-.786-1.872-1.761-2.693-1.761h-.06a.91.91,0,0,0-.615.291.941.941,0,0,0-.06-.667c-.376-.744-1.778-1.171-2.906-1.5-.4-.12-.786-.231-1.051-.342-.051-.017-.094-.043-.145-.06a2.732,2.732,0,0,1-.88-.479l-.051-.06-.034.043a2.929,2.929,0,0,1-.88.479c-.051.017-.1.043-.145.06-.265.111-.65.222-1.051.342-1.128.333-2.522.761-2.906,1.5a.88.88,0,0,0-.06.675.937.937,0,0,0-.607-.282c-.838-.051-1.9.957-2.752,1.761-.308.291-.6.564-.821.735-.043.034-.085.06-.128.094a2.714,2.714,0,0,1-.855.53l-.077.017.026.077a2.711,2.711,0,0,1-.026,1.009.942.942,0,0,0-.017.154c-.034.291-.128.675-.222,1.086-.274,1.145-.607,2.564-.145,3.265A.794.794,0,0,0,13.008,20.051Zm10.2-10.044a10.044,10.044,0,1,1-10,10.044A10.034,10.034,0,0,1,23.206,10.008Z" transform="translate(-12.234 -8.11)" fill="#fff"/>
        <path id="Path_118222" data-name="Path 118222" d="M20.658,31.833h7.291a8.821,8.821,0,0,0,.9-.453H19.76A8.821,8.821,0,0,0,20.658,31.833Z" transform="translate(-13.327 -11.49)" fill="#fff"/>
        <path id="Path_118223" data-name="Path 118223" d="M24.636,32.729a9.324,9.324,0,0,0,2.556-.359H22.08A9.052,9.052,0,0,0,24.636,32.729Z" transform="translate(-13.664 -11.633)" fill="#fff"/>
        <path id="Path_118224" data-name="Path 118224" d="M27.433,22.061a.876.876,0,0,0-.479-.111,1.083,1.083,0,0,0-.291.034.884.884,0,0,0-.624.624A5.3,5.3,0,0,0,26.4,23a1.392,1.392,0,0,1,.539.889,1.066,1.066,0,0,1-.752,1.094,2.457,2.457,0,0,0,1.633-.513.978.978,0,0,0,.265-.778,1.434,1.434,0,0,0-.333-.65c-.214-.308-.444-.615-.316-.983C27.442,22.07,27.433,22.07,27.433,22.061Z" transform="translate(-14.239 -10.12)" fill="#fff"/>
        <path id="Path_118225" data-name="Path 118225" d="M28.578,22.32a1.346,1.346,0,0,0-.479.077.673.673,0,0,0-.376.231,2.372,2.372,0,0,0,.248.376,1.449,1.449,0,0,1,.359.735,1.1,1.1,0,0,1-.308.9,2.169,2.169,0,0,1-1.342.53h.128a3.213,3.213,0,0,0,2.086-.581,1.015,1.015,0,0,0,.376-.838,1.1,1.1,0,0,0-.248-.556.684.684,0,0,1-.137-.829A.808.808,0,0,0,28.578,22.32Z" transform="translate(-14.332 -10.174)" fill="#fff"/>
        <path id="Path_118226" data-name="Path 118226" d="M26.32,24.27a.966.966,0,0,0,.068-.41,1.269,1.269,0,0,0-.5-.786,3.4,3.4,0,0,1-.684-.9l-.026-.06c-.111-.265-.188-.436-.359-.436s-.256.18-.368.453a4.4,4.4,0,0,1-.735.974,1.178,1.178,0,0,0-.462.752.966.966,0,0,0,.068.41c.18.47.872.684,1.47.684h.051C25.448,24.954,26.14,24.74,26.32,24.27Z" transform="translate(-13.835 -10.081)" fill="#fff"/>
        <path id="Path_118227" data-name="Path 118227" d="M21.75,23.684a.978.978,0,0,0,.265.778,2.429,2.429,0,0,0,1.633.513A1.066,1.066,0,0,1,22.9,23.88a1.392,1.392,0,0,1,.539-.889,3.108,3.108,0,0,0,.359-.393.884.884,0,0,0-.624-.624,1.083,1.083,0,0,0-.291-.034.9.9,0,0,0-.479.111l-.009.009c.137.359-.094.667-.316.966A1.531,1.531,0,0,0,21.75,23.684Z" transform="translate(-13.616 -10.119)" fill="#fff"/>
        <path id="Path_118228" data-name="Path 118228" d="M20.46,23.727a1,1,0,0,0,.376.838,3.213,3.213,0,0,0,2.086.581h.128a2.169,2.169,0,0,1-1.342-.53,1.169,1.169,0,0,1-.308-.9,1.558,1.558,0,0,1,.359-.735,2.6,2.6,0,0,0,.248-.376.673.673,0,0,0-.376-.231,1.5,1.5,0,0,0-.479-.077,1.115,1.115,0,0,0-.308.034.684.684,0,0,1-.137.829A1.2,1.2,0,0,0,20.46,23.727Z" transform="translate(-13.429 -10.171)" fill="#fff"/>
        <path id="Path_118229" data-name="Path 118229" d="M22.742,26.044c.034-.026.06-.043.085-.06a.586.586,0,0,0,.128-.12l.06-.06a3.485,3.485,0,0,1-.521-.034h0a.044.044,0,0,0-.034.017c-.026.017-.043.034-.068.051a1.2,1.2,0,0,1-.855.325H21.52a2.18,2.18,0,0,0,.923.214h0c.043,0,.043-.017.043-.026v-.068C22.52,26.189,22.623,26.12,22.742,26.044Z" transform="translate(-13.583 -10.675)" fill="#fff"/>
        <path id="Path_118230" data-name="Path 118230" d="M23.524,26.593a.777.777,0,0,0,.256-.034c.051-.017.085-.034.094-.06a.26.26,0,0,1-.043-.06.516.516,0,0,1,.026-.641.008.008,0,0,1,.009-.009c-.06.009-.12.009-.18.017-.291.034-.342.094-.419.18a.634.634,0,0,1-.154.137l-.085.06c-.094.06-.18.111-.188.162a.063.063,0,0,0,.017.051A.992.992,0,0,0,23.524,26.593Z" transform="translate(-13.774 -10.678)" fill="#fff"/>
        <path id="Path_118231" data-name="Path 118231" d="M24.94,25.7h-.009c-.419,0-.667.06-.786.188a.35.35,0,0,0-.009.453c.017.026.043.051.06.077l.017.017a.843.843,0,0,0,.214.111.762.762,0,0,1,.513.444.74.74,0,0,1,.513-.444.637.637,0,0,0,.214-.111l.017-.017a.266.266,0,0,0,.06-.077.36.36,0,0,0-.009-.453c-.12-.128-.368-.188-.786-.188Z" transform="translate(-13.951 -10.665)" fill="#fff"/>
        <path id="Path_118232" data-name="Path 118232" d="M26.14,26.5a.2.2,0,0,0,.094.06.745.745,0,0,0,.256.034.945.945,0,0,0,.667-.205.084.084,0,0,0,.017-.051c-.009-.043-.094-.1-.188-.162a.519.519,0,0,1-.085-.06,1.318,1.318,0,0,1-.154-.137c-.068-.077-.128-.137-.419-.18a1.275,1.275,0,0,1-.18-.017l.009.009a.5.5,0,0,1,.026.641A.477.477,0,0,1,26.14,26.5Z" transform="translate(-14.254 -10.676)" fill="#fff"/>
        <path id="Path_118233" data-name="Path 118233" d="M27.483,26.387h0a2.18,2.18,0,0,0,.923-.214h-.017a1.18,1.18,0,0,1-.855-.325c-.026-.017-.043-.034-.068-.051-.009-.009-.017-.009-.034-.017h0c-.171.017-.342.026-.521.034a.4.4,0,0,1,.06.06.9.9,0,0,0,.128.12.519.519,0,0,1,.085.06c.12.077.222.145.248.248a.094.094,0,0,1,0,.068C27.44,26.378,27.44,26.387,27.483,26.387Z" transform="translate(-14.366 -10.676)" fill="#fff"/>
        <path id="Path_118234" data-name="Path 118234" d="M22.358,29.8c.043.017.684.205.8.222a.719.719,0,0,0,.59-.12c.009-.009.026-.017.034-.034a.358.358,0,0,0,.068-.1c.085-.214-.12-.479-.761-.633a6.246,6.246,0,0,0-2.838.026c-.479.137-.675.342-.675.539a.383.383,0,0,0,.043.162h0a.773.773,0,0,0,.282.265c.06.034.137.068.214.1h0a3.077,3.077,0,0,0,.47.137,6.138,6.138,0,0,0,1.539.1c.709-.043.658-.256.5-.35a2.268,2.268,0,0,1-.342-.214C22.2,29.835,22.264,29.758,22.358,29.8Z" transform="translate(-13.301 -11.142)" fill="#fff"/>
        <path id="Path_118235" data-name="Path 118235" d="M23.341,30.34a.077.077,0,0,1,.009.043.282.282,0,0,1,0,.12c-.06.231-.368.3-.65.325h7.189c.205-.145.41-.291.607-.453H23.512A.5.5,0,0,1,23.341,30.34Z" transform="translate(-13.754 -11.338)" fill="#fff"/>
        <path id="Path_118236" data-name="Path 118236" d="M20.361,30.749a3.126,3.126,0,0,1-.5-.145h-.009l-.009-.009c-.085-.034-.162-.077-.231-.111a.5.5,0,0,1-.128-.094H18.31c.2.162.393.308.607.453h2.154A5.932,5.932,0,0,1,20.361,30.749Z" transform="translate(-13.117 -11.346)" fill="#fff"/>
        <path id="Path_118237" data-name="Path 118237" d="M25.208,27.866a.29.29,0,0,1,.154-.368.874.874,0,0,1,.18-.068H15.78a4.992,4.992,0,0,0,.282.453h9.146C25.208,27.874,25.208,27.874,25.208,27.866Z" transform="translate(-12.749 -10.916)" fill="#fff"/>
        <path id="Path_118238" data-name="Path 118238" d="M30.684,27.575a3.494,3.494,0,0,1,.838.308h1.915c.094-.145.188-.3.282-.453H29.94C30.2,27.473,30.461,27.515,30.684,27.575Z" transform="translate(-14.806 -10.916)" fill="#fff"/>
        <path id="Path_118239" data-name="Path 118239" d="M32.131,28.487a.429.429,0,0,1-.154.274l-.034.026-.1.077h1.239c.12-.145.239-.3.359-.453H32.131C32.131,28.444,32.131,28.461,32.131,28.487Z" transform="translate(-15.082 -11.058)" fill="#fff"/>
        <path id="Path_118240" data-name="Path 118240" d="M19.849,28.874a5.55,5.55,0,0,1,1.376-.154,6.165,6.165,0,0,1,1.436.154h1.752a.343.343,0,0,1-.017-.239.437.437,0,0,1,.111-.205H16.43c.111.154.231.308.359.453h3.06Z" transform="translate(-12.844 -11.061)" fill="#fff"/>
        <path id="Path_118241" data-name="Path 118241" d="M19.054,29.759a.53.53,0,0,1,.137-.359H17.25c.145.154.3.308.453.453h1.359C19.062,29.827,19.054,29.793,19.054,29.759Z" transform="translate(-12.963 -11.202)" fill="#fff"/>
        <path id="Path_118242" data-name="Path 118242" d="M29.336,29.547l-.06.009a8.432,8.432,0,0,1-1.641.171A3.468,3.468,0,0,1,26,29.41H24.66a.607.607,0,0,1,.085.12.418.418,0,0,1,.034.333H31.25c.154-.145.308-.3.453-.453H29.9C29.72,29.461,29.532,29.5,29.336,29.547Z" transform="translate(-14.039 -11.203)" fill="#fff"/>
        <path id="Path_118243" data-name="Path 118243" d="M27.607,28.316a2.754,2.754,0,0,1-.333-.034c-.128-.017-.282-.043-.436-.051h-.111a2.583,2.583,0,0,0-.487.051c-.188.043-.479.291-.145.564a2.575,2.575,0,0,0,1.718.427,8.758,8.758,0,0,0,1.607-.162l.06-.009a3.8,3.8,0,0,0,1.487-.564l.026-.026a.307.307,0,0,0,.1-.171c.009-.094-.068-.333-1.034-.573a8.893,8.893,0,0,0-2.026-.239H28a2.582,2.582,0,0,0-1.077.145.236.236,0,0,0-.068.051.161.161,0,0,0-.009.094c.094.231.479.282.829.282.2.009.188.094.154.137A.286.286,0,0,1,27.607,28.316Z" transform="translate(-14.225 -10.93)" fill="#fff"/>
        <path id="Path_118244" data-name="Path 118244" d="M33.661,25.057l-2.274-.2a1.275,1.275,0,0,0-.017.18l2.274.2A1.276,1.276,0,0,1,33.661,25.057Z" transform="translate(-15.013 -10.543)" fill="#fff"/>
        <path id="Path_118245" data-name="Path 118245" d="M33.577,22.74l-2.257.4.026.18,2.265-.4C33.6,22.86,33.585,22.8,33.577,22.74Z" transform="translate(-15.006 -10.235)" fill="#fff"/>
        <path id="Path_118246" data-name="Path 118246" d="M30.84,21.474c.026.051.051.111.077.162l2.077-.974c-.026-.051-.051-.111-.077-.162Z" transform="translate(-14.936 -9.909)" fill="#fff"/>
        <path id="Path_118247" data-name="Path 118247" d="M31.832,18.645c-.034-.051-.077-.094-.111-.145L29.96,19.979c.034.043.077.094.111.145Z" transform="translate(-14.809 -9.619)" fill="#fff"/>
        <path id="Path_118248" data-name="Path 118248" d="M30.3,17.071a1.643,1.643,0,0,1-.145-.111L28.82,18.832a1.644,1.644,0,0,1,.145.111Z" transform="translate(-14.643 -9.395)" fill="#fff"/>
        <path id="Path_118249" data-name="Path 118249" d="M27.6,18.1l.838-2.145c-.06-.026-.111-.043-.171-.068l-.829,2.145C27.491,18.053,27.543,18.078,27.6,18.1Z" transform="translate(-14.443 -9.24)" fill="#fff"/>
        <path id="Path_118250" data-name="Path 118250" d="M16.2,25.236l2.248-.2a1.275,1.275,0,0,1-.017-.18l-2.239.2A.634.634,0,0,0,16.2,25.236Z" transform="translate(-12.808 -10.543)" fill="#fff"/>
        <path id="Path_118251" data-name="Path 118251" d="M18.478,23.143l-2.222-.393-.026.18,2.222.393Z" transform="translate(-12.815 -10.236)" fill="#fff"/>
        <path id="Path_118252" data-name="Path 118252" d="M16.86,20.672l2.051.957c.026-.06.051-.111.077-.162l-2.051-.957C16.911,20.561,16.886,20.613,16.86,20.672Z" transform="translate(-12.906 -9.911)" fill="#fff"/>
        <path id="Path_118253" data-name="Path 118253" d="M19.915,19.982,18.171,18.52a.933.933,0,0,0-.111.145L19.8,20.127C19.846,20.076,19.881,20.024,19.915,19.982Z" transform="translate(-13.08 -9.622)" fill="#fff"/>
        <path id="Path_118254" data-name="Path 118254" d="M20.921,19c.043-.034.094-.077.145-.111L19.715,17.05c-.051.034-.094.077-.145.111Z" transform="translate(-13.3 -9.408)" fill="#fff"/>
        <path id="Path_118255" data-name="Path 118255" d="M22.314,18.156l-.932-2.086c-.051.026-.111.051-.162.077l.932,2.094A.426.426,0,0,1,22.314,18.156Z" transform="translate(-13.539 -9.266)" fill="#fff"/>
        <path id="Path_118256" data-name="Path 118256" d="M31.419,24.189l3.975-.18a1.263,1.263,0,0,0-.009-.18l-3.975.18C31.41,24.061,31.419,24.121,31.419,24.189Z" transform="translate(-15.019 -10.393)" fill="#fff"/>
        <path id="Path_118257" data-name="Path 118257" d="M31.183,22.378l3.8-1.2c-.017-.06-.034-.12-.051-.171l-3.8,1.2A1,1,0,0,1,31.183,22.378Z" transform="translate(-14.98 -9.983)" fill="#fff"/>
        <path id="Path_118258" data-name="Path 118258" d="M30.545,20.7l3.368-2.145a1.487,1.487,0,0,1-.094-.154L30.46,20.545A.693.693,0,0,0,30.545,20.7Z" transform="translate(-14.881 -9.604)" fill="#fff"/>
        <path id="Path_118259" data-name="Path 118259" d="M32.221,16.318l-.128-.128L29.4,19.13l.128.128Z" transform="translate(-14.727 -9.283)" fill="#fff"/>
        <path id="Path_118260" data-name="Path 118260" d="M30.136,14.675c-.051-.026-.1-.06-.154-.085L28.11,18.112a1.487,1.487,0,0,1,.154.094Z" transform="translate(-14.54 -9.051)" fill="#fff"/>
        <path id="Path_118261" data-name="Path 118261" d="M18.109,24l-3.94-.171a1.262,1.262,0,0,1-.009.179l3.94.171C18.1,24.121,18.109,24.061,18.109,24Z" transform="translate(-12.514 -10.393)" fill="#fff"/>
        <path id="Path_118262" data-name="Path 118262" d="M18.4,22.2l-3.77-1.188c-.017.06-.034.111-.051.171l3.778,1.2C18.375,22.318,18.384,22.258,18.4,22.2Z" transform="translate(-12.575 -9.983)" fill="#fff"/>
        <path id="Path_118263" data-name="Path 118263" d="M19.166,20.538,15.824,18.41a1.487,1.487,0,0,0-.094.154l3.342,2.128A1.486,1.486,0,0,1,19.166,20.538Z" transform="translate(-12.742 -9.606)" fill="#fff"/>
        <path id="Path_118264" data-name="Path 118264" d="M20.245,19.211,17.518,16.33l-.128.128,2.727,2.881Z" transform="translate(-12.983 -9.304)" fill="#fff"/>
        <path id="Path_118265" data-name="Path 118265" d="M19.36,14.894l2,3.436a1.487,1.487,0,0,1,.154-.094l-2-3.436A.924.924,0,0,1,19.36,14.894Z" transform="translate(-13.269 -9.082)" fill="#fff"/>
        <path id="Path_118266" data-name="Path 118266" d="M17.55,15.03l-.137-.12-.214.248a.223.223,0,0,0-.06.171.219.219,0,0,0,.068.162.56.56,0,0,0,.248.12,1.265,1.265,0,0,0,.368.026l.009-.077a.737.737,0,0,1-.239-.034.477.477,0,0,1-.162-.085.163.163,0,0,1-.06-.12.173.173,0,0,1,.034-.128Z" transform="translate(-12.946 -9.098)" fill="#fff"/>
        <path id="Path_118267" data-name="Path 118267" d="M18.788,12.654a.172.172,0,0,1,.094-.026.141.141,0,0,1,.085.009l.325.137c.051-.026.009-.077-.145-.154a1.481,1.481,0,0,0-.154-.068.463.463,0,0,0-.214-.051.4.4,0,0,0-.18.034.185.185,0,0,0-.06.051l.171.12A.4.4,0,0,0,18.788,12.654Z" transform="translate(-13.15 -8.748)" fill="#fff"/>
        <path id="Path_118268" data-name="Path 118268" d="M19.847,12.214a.62.62,0,0,0,.077-.043.48.48,0,0,1,.171-.026.833.833,0,0,1,.239.043l.111-.051-.3-.265A.3.3,0,0,0,20,11.778a.238.238,0,0,0-.154.009.309.309,0,0,0-.111.077l.171.12c0-.017.009-.026.026-.034a.138.138,0,0,1,.06-.034.175.175,0,0,1,.094,0,.325.325,0,0,1,.111.077l.18.128-.017.009a3.936,3.936,0,0,0-.393-.1.469.469,0,0,0-.222,0,.138.138,0,0,0-.06.034c-.017.009-.026.026-.034.034l.154.137C19.812,12.24,19.83,12.223,19.847,12.214Z" transform="translate(-13.311 -8.641)" fill="#fff"/>
        <path id="Path_118269" data-name="Path 118269" d="M17.432,14.154a.031.031,0,0,1,.026.009c.017.009.026.017.043.026.034.034.034.077.017.137a.373.373,0,0,1-.1.162.732.732,0,0,0,.359.128.34.34,0,0,0,.274-.077.218.218,0,0,0,.068-.1.358.358,0,0,0,.034-.137l.137.145.231-.051-.633-.667c.094-.085.188-.162.291-.239l.487.615.239-.017-.573-.727c.1-.085.214-.162.325-.239l.154.231-.085.051c-.017.009-.017.017-.026.034s0,.026.009.043c.026.043.085.068.188.085a.3.3,0,0,0,.205-.009.085.085,0,0,0,.034-.043.108.108,0,0,0-.009-.051l-.3-.462c.077-.051.145-.1.222-.145l.444.684.231-.017-.5-.778c.231-.137.462-.265.709-.385l.128.248-.4.2c-.026.009-.034.026-.043.051a.094.094,0,0,0,0,.068.287.287,0,0,0,.137.128.2.2,0,0,0,.162.026c.009-.009.017-.017.017-.026a.026.026,0,0,0,0-.034l-.034-.068a.039.039,0,0,1,0-.043c0-.017.009-.026.017-.026l.222-.111.162.316.231.009-.41-.829c.256-.12.513-.222.778-.316l.111.3a.763.763,0,0,0-.2-.085.292.292,0,0,0-.145-.009.3.3,0,0,0-.171.137.248.248,0,0,0-.017.205.325.325,0,0,0,.188.18.32.32,0,0,0,.256.034.219.219,0,0,0,.094-.068.73.73,0,0,0,.094-.12l.068.18.231.043-.145-.4a.433.433,0,0,1,.077-.137.325.325,0,0,1,.111-.077.053.053,0,0,1,.06.009.088.088,0,0,1,.043.051.274.274,0,0,1,.017.145.685.685,0,0,1-.043.18l.214.051a.605.605,0,0,0-.009-.35.36.36,0,0,0-.171-.188.279.279,0,0,0-.214-.051.347.347,0,0,0-.077.043.806.806,0,0,0-.085.085l-.085-.239a5.239,5.239,0,0,1,.6-.171l-.043-.043h0l-.009-.009-.128-.111a9.356,9.356,0,0,0-4.9,3.222l.205.051C17.013,14.607,17.218,14.376,17.432,14.154Zm3.5-1.658a.451.451,0,0,1-.12.085.119.119,0,0,1-.077,0,.077.077,0,0,1-.051-.051.168.168,0,0,1,.009-.128.155.155,0,0,1,.094-.085.5.5,0,0,1,.12-.017.284.284,0,0,1,.137.043A.711.711,0,0,1,20.928,12.5ZM17.74,13.855l.248.265a1.234,1.234,0,0,1-.043.205.322.322,0,0,1-.077.128.2.2,0,0,1-.1.051.244.244,0,0,1-.111,0,.008.008,0,0,0-.009-.009v-.009a.606.606,0,0,0,.094-.18.125.125,0,0,0-.017-.128.3.3,0,0,0-.094-.06c-.034-.009-.085-.017-.137-.026C17.586,14.009,17.663,13.932,17.74,13.855Z" transform="translate(-12.871 -8.607)" fill="#fff"/>
        <path id="Path_118270" data-name="Path 118270" d="M21.044,11.49a.351.351,0,0,1,.094-.009.144.144,0,0,1,.085.026l.282.205q.09-.026-.1-.18c-.06-.051-.111-.085-.128-.1a.619.619,0,0,0-.2-.1.319.319,0,0,0-.18,0,.135.135,0,0,0-.068.043l.137.154C20.992,11.516,21.018,11.5,21.044,11.49Z" transform="translate(-13.483 -8.575)" fill="#fff"/>
        <path id="Path_118271" data-name="Path 118271" d="M25.626,12.66a.285.285,0,0,1,.128-.026l.111.009-.077-.145-.1-.009a.241.241,0,0,0-.171.034.169.169,0,0,0-.085.12.343.343,0,0,0,.077.248.335.335,0,0,0,.231.128.44.44,0,0,0,.154-.009.337.337,0,0,0,.128-.051l-.068-.162a.434.434,0,0,1-.154.077.448.448,0,0,1-.145.017.09.09,0,0,1-.077-.043.172.172,0,0,1-.026-.094A.139.139,0,0,1,25.626,12.66Z" transform="translate(-14.15 -8.746)" fill="#fff"/>
        <path id="Path_118272" data-name="Path 118272" d="M27.7,12.189a.176.176,0,0,1,.128-.026l.205.051.043-.171-.316-.085a.253.253,0,0,0-.18.017.219.219,0,0,0-.111.137.6.6,0,0,0,.009.274,1.282,1.282,0,0,0,.145.342L27.7,12.7a1.219,1.219,0,0,1-.077-.231.69.69,0,0,1,0-.188A.267.267,0,0,1,27.7,12.189Z" transform="translate(-14.445 -8.668)" fill="#fff"/>
        <path id="Path_118273" data-name="Path 118273" d="M32.2,14.189c-.068.017-.111.068-.128.171a.65.65,0,0,0,.043.35.407.407,0,0,1-.248-.009.2.2,0,0,0,.026-.077c0-.026,0-.043-.017-.051a.1.1,0,0,0-.077-.026.163.163,0,0,0-.085.043.117.117,0,0,0-.026.111.208.208,0,0,0,.077.12l-.068.316.111.034.009-.308a.923.923,0,0,0,.368.026.4.4,0,0,0,.256-.111.381.381,0,0,0,.017-.521A.283.283,0,0,0,32.2,14.189Zm.179.291a.228.228,0,0,1-.06.12.3.3,0,0,1-.085.068.136.136,0,0,1-.068.026.455.455,0,0,1-.017-.18.169.169,0,0,1,.043-.12.177.177,0,0,1,.085-.051.062.062,0,0,1,.068.017A.121.121,0,0,1,32.382,14.48Z" transform="translate(-15.059 -8.992)" fill="#fff"/>
        <path id="Path_118274" data-name="Path 118274" d="M31.89,15.808a.249.249,0,0,1-.162-.094,1.451,1.451,0,0,1-.18-.265.408.408,0,0,1-.051-.231l-.077-.009a.809.809,0,0,0,.043.316,1.116,1.116,0,0,0,.18.308.381.381,0,0,0,.205.128.2.2,0,0,0,.2-.051.256.256,0,0,0,.077-.188.266.266,0,0,0-.051-.205.218.218,0,0,0-.085-.06.49.49,0,0,0-.12-.034l-.009.18a.21.21,0,0,1,.1.009.105.105,0,0,1,.068.043l.026.051c0,.017,0,.034-.017.043A.11.11,0,0,1,31.89,15.808Z" transform="translate(-15.02 -9.141)" fill="#fff"/>
        <path id="Path_118275" data-name="Path 118275" d="M23.579,12.237a.459.459,0,0,0,.3.094.264.264,0,0,0,.171-.094.283.283,0,0,0,.06-.2.144.144,0,0,0-.026-.085.133.133,0,0,0-.051-.068.312.312,0,0,0,.12.06.252.252,0,0,0,.111.017.161.161,0,0,0,.085-.034l.034.308.214.094-.085-.915c.12-.009.239-.009.359-.009h.051l-.017.368h-.068c-.017,0-.026.009-.043.017a.044.044,0,0,0-.017.034.343.343,0,0,0,.1.171c.068.077.128.12.162.12.009,0,.026-.009.026-.017a.122.122,0,0,0,.017-.051v-.085l.333.017-.009.248.205.137.043-.923c.282.026.564.06.838.111l-.026.145-.282-.051a.278.278,0,0,0-.188.034.221.221,0,0,0-.1.145.547.547,0,0,0,.026.282,1.191,1.191,0,0,0,.154.316l.077-.034a.545.545,0,0,1-.1-.2.418.418,0,0,1-.009-.205.151.151,0,0,1,.077-.111.173.173,0,0,1,.128-.034l.2.034-.077.462.18.162.154-.915a9.084,9.084,0,0,1,1.513.453l-.1.274a.493.493,0,0,0-.111-.2.35.35,0,0,0-.154-.111A.311.311,0,0,0,27.614,12a.226.226,0,0,0-.154.137.462.462,0,0,0,.239.5.274.274,0,0,0,.145.017A.348.348,0,0,0,28,12.613l-.06.171.145.2.325-.863c.128.051.248.111.376.171l-.171.325-.06-.034a.039.039,0,0,0-.043,0c-.017,0-.026.009-.034.026-.017.034-.009.094.026.2s.06.162.094.18a.026.026,0,0,0,.034,0,.067.067,0,0,0,.034-.034l.043-.077.3.154-.111.214.111.214.436-.821c.111.06.214.128.316.2l-.436.667.094.222.513-.778a6.848,6.848,0,0,1,.641.47l-.171.222-.35-.274a.066.066,0,0,0-.068-.017.087.087,0,0,0-.06.034.28.28,0,0,0-.051.18.22.22,0,0,0,.043.154c.009.009.017.009.034.009a.065.065,0,0,0,.034-.017l.051-.06a.044.044,0,0,1,.034-.017c.017-.009.026,0,.034,0l.2.154-.222.282.085.214.573-.727c.085.068.162.145.248.214l.137-.145a9.216,9.216,0,0,0-6.206-2.393c-.274,0-.547.009-.821.034l.12.188c.043,0,.085-.009.128-.009l.026.265a.26.26,0,0,1-.068.068.144.144,0,0,1-.085.026.361.361,0,0,1-.137,0A.171.171,0,0,1,24,11.776a.379.379,0,0,0,.068-.094.235.235,0,0,0,.017-.111.279.279,0,0,0-.145-.2.4.4,0,0,0-.265-.077.254.254,0,0,0-.128.043.612.612,0,0,0-.128.094l.111.137a.411.411,0,0,1,.137-.1.284.284,0,0,1,.137-.043.122.122,0,0,1,.094.026.124.124,0,0,1,.051.077.161.161,0,0,1-.026.128c-.009.034-.034.051-.085.06a.185.185,0,0,0-.094.009.362.362,0,0,0-.12.051l.094.162a.612.612,0,0,0,.214-.1.109.109,0,0,1,.034.051.124.124,0,0,1,.017.06.214.214,0,0,1-.043.154.247.247,0,0,1-.137.077.305.305,0,0,1-.214-.06.691.691,0,0,1-.188-.2l-.06.051A.779.779,0,0,0,23.579,12.237Zm4.274.248a.338.338,0,0,1-.188-.026.209.209,0,0,1-.094-.077.1.1,0,0,1-.009-.094.174.174,0,0,1,.137-.094.362.362,0,0,1,.214.017.2.2,0,0,1,.1.077.411.411,0,0,1,.077.137A1.627,1.627,0,0,1,27.853,12.485Zm1.094-.111c.1.051.2.1.3.154l-.171.333-.3-.154Zm-3.821-.966c.111,0,.222.009.333.017l-.017.376-.333-.017Z" transform="translate(-13.847 -8.562)" fill="#fff"/>
        <path id="Path_118276" data-name="Path 118276" d="M32.23,15.352l.06.222.65-.641c.051.051.094.111.145.162l.06-.231c-.12-.128-.231-.256-.359-.385l-.137.137c.051.051.111.111.162.171Z" transform="translate(-15.138 -9.035)" fill="#fff"/>
        <rect id="Rectangle_61559" data-name="Rectangle 61559" width="0.256" height="0.256" transform="translate(17.494 6.479)" fill="#fff"/>
        <rect id="Rectangle_61560" data-name="Rectangle 61560" width="0.256" height="0.256" transform="translate(17.776 6.206)" fill="#fff"/>
        <path id="Path_118277" data-name="Path 118277" d="M23.412,18.691h0a.411.411,0,0,0-.017.359.612.612,0,0,0,.333.274v.009c0,.2.188.359.5.436a.455.455,0,0,0,.5.359.557.557,0,0,0,.154-.017.4.4,0,0,0,.308-.342c.316-.077.5-.239.5-.436a.145.145,0,0,0-.009-.06c.222-.128.342-.291.333-.444a.317.317,0,0,0-.034-.128,2.236,2.236,0,0,0,.6-.949h0a.159.159,0,0,0,.017-.06,2.472,2.472,0,0,0,.043-.274,1.725,1.725,0,0,0-.094-.752l-.085-.2a1.831,1.831,0,0,0-.274-.385.771.771,0,0,0-.085-.077h0l-.111-.1c-.026-.026-.06-.051-.085-.077-.393-.35-.667-.607-.581-1.222a1.447,1.447,0,0,0-.308-1.3l-.051-.026c-.009-.085-.017-.137-.026-.137a.277.277,0,0,0-.231-.154H24.66c-.111,0-.316.051-.4.376a3.185,3.185,0,0,0-.043.778V14.3a2.928,2.928,0,0,1-.795,1.453,4.257,4.257,0,0,0-.47.658A1.6,1.6,0,0,0,23.412,18.691Zm1.342,1.188c-.128,0-.239-.068-.239-.154a.077.077,0,0,1,.009-.043.526.526,0,0,0,.12.009h.12a2.1,2.1,0,0,0,.231-.017.077.077,0,0,1,.009.043C24.993,19.8,24.882,19.879,24.754,19.879Zm.256-.333c-.051.009-.1.009-.154.017h-.1c-.085,0-.171-.009-.256-.017-.308-.043-.5-.154-.5-.239V19.29a3.181,3.181,0,0,0,.658.06,2.809,2.809,0,0,0,.812-.094.078.078,0,0,1,.026.06C25.5,19.392,25.318,19.5,25.01,19.546ZM23.548,16l.017-.017a3.364,3.364,0,0,0,.923-1.7V14.11a3.574,3.574,0,0,1,.034-.709c.043-.162.1-.18.145-.18h.017c.034.009.051.043.06.128,0,.051,0,.188-.009.342a5.434,5.434,0,0,0,.009,1,3.421,3.421,0,0,0,.256.675,2.312,2.312,0,0,1,.265.812c.017.453-.205.487-.368.513-.077.009-.162.026-.162.12a.07.07,0,0,0,.077.068.434.434,0,0,0,.077-.017.7.7,0,0,1,.214-.034.753.753,0,0,1,.145.017.451.451,0,0,1,.291.265.64.64,0,0,1-.171.59.537.537,0,0,1-.35.171.072.072,0,0,0-.068.077.069.069,0,0,0,.077.06h.06a.961.961,0,0,1,.684.2.285.285,0,0,1,.077.2c-.009.145-.205.2-.333.231-.094.026-.154.043-.154.1v.034l.043.043h.026a.7.7,0,0,0,.077-.017.774.774,0,0,1,.214-.034.127.127,0,0,1,.06.009c.043.017.051.034.051.051,0,.068-.111.2-.368.308l-.009.009h0a2.265,2.265,0,0,1-.7.085c-.47,0-1.017-.085-1.111-.282a.163.163,0,0,1,.026-.171.187.187,0,0,0,.043.034,2.16,2.16,0,0,0,.94.188,1.174,1.174,0,0,0,.308-.026c.06-.009.154-.034.145-.1-.009-.043-.043-.068-.1-.068h-.034c-.043,0-.12.009-.2.009a2.592,2.592,0,0,1-.915-.18,2.535,2.535,0,0,1-.556-.3,1.152,1.152,0,0,1-.376-.915A2.178,2.178,0,0,1,23.548,16Z" transform="translate(-13.748 -8.819)" fill="#fff"/>
        <g id="Group_135040" data-name="Group 135040" transform="translate(12.544 8.847)">
          <path id="Path_118278" data-name="Path 118278" d="M30.406,24.717l-.231-.06a5.042,5.042,0,0,0,.154-1.248,4.971,4.971,0,0,0-3.419-4.727l.077-.222a5.221,5.221,0,0,1,3.581,4.958A4.792,4.792,0,0,1,30.406,24.717Z" transform="translate(-26.91 -18.46)" fill="#fff"/>
        </g>
        <g id="Group_135041" data-name="Group 135041" transform="translate(5.775 8.958)">
          <path id="Path_118279" data-name="Path 118279" d="M19.152,24.736a5.241,5.241,0,0,1,3.094-6.146l.085.222a4.969,4.969,0,0,0-3.111,4.616,5.092,5.092,0,0,0,.154,1.248Z" transform="translate(-18.99 -18.59)" fill="#fff"/>
        </g>
      </g>
      <g id="Group_135043" data-name="Group 135043" transform="translate(34.045 22.258)">
        <path id="Path_118280" data-name="Path 118280" d="M45.274,32.293h4.5V29.241c0-.692,0-1.521,1.8-1.521a11.126,11.126,0,0,0-.137,1.521v6.949a10.925,10.925,0,0,0,.137,1.513c-1.8,0-1.8-.829-1.8-1.521V33.131h-4.5v3.052c0,.692,0,1.521-1.8,1.521a10.925,10.925,0,0,0,.137-1.513V29.241a11.126,11.126,0,0,0-.137-1.521c1.8,0,1.8.829,1.8,1.521Z" transform="translate(-43.47 -27.156)" fill="#fff"/>
        <path id="Path_118281" data-name="Path 118281" d="M61.541,27.71A4.825,4.825,0,0,1,66.421,32.7a4.882,4.882,0,1,1-9.761,0A4.83,4.83,0,0,1,61.541,27.71Zm0,9.291c1.846,0,3.146-1.932,3.146-4.3s-1.3-4.3-3.146-4.3S58.4,30.334,58.4,32.7,59.7,37,61.541,37Z" transform="translate(-45.386 -27.154)" fill="#fff"/>
        <path id="Path_118282" data-name="Path 118282" d="M74.746,28.544c-1.333,0-1.966.709-1.966,1.487a1.012,1.012,0,0,0,.573.932l3.47,1.692a2.465,2.465,0,0,1,1.521,2.205c0,1.385-1.291,2.787-3.607,2.787-1.111,0-2.077-.051-3.368-.068l.735-1.043a12.219,12.219,0,0,0,2.624.316c1.539,0,2.257-.778,2.257-1.5a1.1,1.1,0,0,0-.667-1l-3.393-1.675a2.479,2.479,0,0,1-1.41-2.248c0-1.316,1.043-2.633,3.248-2.633.983,0,1.983.051,3.12.068a.909.909,0,0,1-1.009.932A12.95,12.95,0,0,0,74.746,28.544Z" transform="translate(-47.522 -27.167)" fill="#fff"/>
        <path id="Path_118283" data-name="Path 118283" d="M90.271,30.49c0,1.65-1.5,2.744-3.274,2.744-.6,0-1.205-.043-1.8-.043v2.992c0,.692,0,1.521-1.8,1.521a11.126,11.126,0,0,0,.137-1.521V29.259a8.193,8.193,0,0,0-.137-1.385H85.4c.308,0,.539,0,.786-.017.248,0,.513-.017.8-.017C88.775,27.84,90.271,28.823,90.271,30.49Zm-5.077-1.923V32.55c.538.026,1.137.043,1.521.043A1.886,1.886,0,0,0,88.57,30.5a1.791,1.791,0,0,0-1.855-1.957C86.219,28.532,85.724,28.567,85.194,28.567Z" transform="translate(-49.268 -27.173)" fill="#fff"/>
        <path id="Path_118284" data-name="Path 118284" d="M97.457,37.558H95.79V29.241c0-.692,0-1.521,1.8-1.521a11.125,11.125,0,0,0-.137,1.521Z" transform="translate(-51.068 -27.156)" fill="#fff"/>
        <path id="Path_118285" data-name="Path 118285" d="M101.52,27.87h9.291c0,.051-.017.863-.692.863-.872-.017-1.333-.051-2.342-.051h-.709v8.907h-1.8V28.682h-.709c-1.009,0-1.47.043-2.342.051C101.537,28.733,101.52,27.93,101.52,27.87Z" transform="translate(-51.901 -27.178)" fill="#fff"/>
        <path id="Path_118286" data-name="Path 118286" d="M119.864,33.855h-3.411l-1.12,2.47c-.291.624-.573,1.274-1.624,1.274a13.055,13.055,0,0,0,.692-1.274l4.214-9.266,4.214,9.266a11.968,11.968,0,0,0,.692,1.274c-1.932,0-2.231-.65-2.522-1.274Zm-3.034-.829h2.658l-1.333-2.915Z" transform="translate(-53.671 -27.06)" fill="#fff"/>
        <path id="Path_118287" data-name="Path 118287" d="M130.135,36.729h3.744c.974,0,.974.778.974.829H128.34a8.192,8.192,0,0,0,.137-1.385V29.241a11.124,11.124,0,0,0-.137-1.521c1.8,0,1.8.829,1.8,1.521v7.488Z" transform="translate(-55.796 -27.156)" fill="#fff"/>
      </g>
      <rect id="Rectangle_61561" data-name="Rectangle 61561" width="39.841" height="0.291" transform="translate(5.812 38.311)" fill="#fff"/>
      <rect id="Rectangle_61562" data-name="Rectangle 61562" width="36.875" height="0.291" transform="translate(76.237 38.311)" fill="#fff"/>
      <path id="Path_118288" data-name="Path 118288" d="M31.6,59.048V60.51h2.274v.607H31.6v1.718h2.47v.607H30.84V58.45h3.188v.607H31.6Z" transform="translate(-7.59 -9.361)" fill="#58595b"/>
      <path id="Path_118289" data-name="Path 118289" d="M36.18,60.406a3.241,3.241,0,0,1,1.376-.376,1.007,1.007,0,0,1,.9.419A3.3,3.3,0,0,1,39.9,60.03c.624,0,1.1.325,1.1,1.188v2.445h-.744V61.338c0-.564-.239-.744-.59-.744a2.842,2.842,0,0,0-1.051.308,1.2,1.2,0,0,1,.043.325v2.428h-.744V61.329c0-.564-.239-.744-.59-.744a2.842,2.842,0,0,0-1.051.308v2.761H35.53V60.09H36.1Z" transform="translate(-8.271 -9.59)" fill="#58595b"/>
      <path id="Path_118290" data-name="Path 118290" d="M43.755,59.953a3.827,3.827,0,0,1,1.154-.214c.906,0,1.359.581,1.359,1.863,0,1.154-.316,1.846-1.487,1.846a5.959,5.959,0,0,1-1.761-.35V58.03h.744v1.923Zm0,2.761a3.791,3.791,0,0,0,1,.171c.556,0,.761-.368.761-1.291s-.205-1.291-.761-1.291a3.738,3.738,0,0,0-1,.171Z" transform="translate(-9.359 -9.3)" fill="#58595b"/>
      <path id="Path_118291" data-name="Path 118291" d="M48.374,60.543a1.272,1.272,0,0,1,1.06-.513,2.562,2.562,0,0,1,.513.06l-.1.547a1.553,1.553,0,0,0-.41-.051,1.072,1.072,0,0,0-.94.47v2.607H47.75V60.09h.521Z" transform="translate(-10.046 -9.59)" fill="#58595b"/>
      <path id="Path_118292" data-name="Path 118292" d="M51.012,60.218a6.965,6.965,0,0,1,1.41-.188c.786,0,1.521.248,1.521,1.248v2.385H53.38l-.034-.3a3.805,3.805,0,0,1-1.445.359A1.048,1.048,0,0,1,50.73,62.56c0-.812.556-1.1,1.667-1.1.248,0,.513.017.8.043v-.214c0-.547-.419-.692-.94-.692a6.959,6.959,0,0,0-1.171.145Zm2.2,1.7a6.788,6.788,0,0,0-.769-.043c-.838,0-.992.222-.992.65a.572.572,0,0,0,.641.65,2.88,2.88,0,0,0,1.12-.308Z" transform="translate(-10.479 -9.59)" fill="#58595b"/>
      <path id="Path_118293" data-name="Path 118293" d="M58.439,63.586a7.952,7.952,0,0,1-1.368.154c-1.145-.009-1.641-.521-1.641-1.855s.5-1.855,1.658-1.855a7.774,7.774,0,0,1,1.351.154l-.094.539a6.747,6.747,0,0,0-1.137-.145c-.795,0-1.034.368-1.034,1.308s.231,1.308,1.034,1.308a6.747,6.747,0,0,0,1.137-.145Z" transform="translate(-11.161 -9.59)" fill="#58595b"/>
      <path id="Path_118294" data-name="Path 118294" d="M62.971,63.468a6.084,6.084,0,0,1-1.6.265c-1.12-.009-1.692-.573-1.692-1.846,0-1.068.222-1.846,1.752-1.846s1.675.795,1.667,1.846v.222H60.424c.009.709.308,1.051,1.034,1.051a5.567,5.567,0,0,0,1.41-.239Zm-.615-1.778c0-.8-.1-1.154-.932-1.154-.846,0-1.009.35-1.009,1.154Z" transform="translate(-11.779 -9.592)" fill="#58595b"/>
      <path id="Path_118295" data-name="Path 118295" d="M70.865,63.037a5.235,5.235,0,0,1-1.889.453c-1.06,0-1.966-.581-1.966-2.556,0-1.932.786-2.564,2.034-2.564a7.448,7.448,0,0,1,1.752.274l-.145.59a7.588,7.588,0,0,0-1.547-.265c-.872,0-1.325.453-1.325,1.957,0,1.581.581,1.949,1.222,1.949a3.773,3.773,0,0,0,1.12-.231V61.157H68.967V60.55h1.889v2.487Z" transform="translate(-12.843 -9.349)" fill="#58595b"/>
      <path id="Path_118296" data-name="Path 118296" d="M76.025,61.876c0,1.068-.222,1.846-1.752,1.846s-1.752-.778-1.752-1.846.222-1.846,1.752-1.846S76.025,60.808,76.025,61.876Zm-2.769,0c0,.957.128,1.342,1.017,1.342s1.017-.385,1.017-1.342-.128-1.342-1.017-1.342S73.255,60.919,73.255,61.876Z" transform="translate(-13.643 -9.59)" fill="#58595b"/>
      <path id="Path_118297" data-name="Path 118297" d="M80.925,61.876c0,1.068-.222,1.846-1.752,1.846s-1.752-.778-1.752-1.846.222-1.846,1.752-1.846S80.925,60.808,80.925,61.876Zm-2.769,0c0,.957.128,1.342,1.017,1.342s1.017-.385,1.017-1.342-.128-1.342-1.017-1.342S78.155,60.919,78.155,61.876Z" transform="translate(-14.355 -9.59)" fill="#58595b"/>
      <path id="Path_118298" data-name="Path 118298" d="M84.994,63.371l-.034-.282a3.662,3.662,0,0,1-1.368.35c-.786,0-1.282-.539-1.282-1.846,0-1.274.444-1.863,1.359-1.863a4.062,4.062,0,0,1,1.145.214V58.02h.744v5.351Zm-.18-2.889a3.791,3.791,0,0,0-1-.171c-.556,0-.761.368-.761,1.291,0,.974.248,1.291.675,1.291a3.45,3.45,0,0,0,1.086-.256Z" transform="translate(-15.065 -9.298)" fill="#58595b"/>
      <path id="Path_118299" data-name="Path 118299" d="M92.795,63.432V61.158H90.581v2.274H89.82V58.44h.761v2.111h2.214V58.44h.761v4.992Z" transform="translate(-16.156 -9.359)" fill="#58595b"/>
      <path id="Path_118300" data-name="Path 118300" d="M98.521,63.468a6.084,6.084,0,0,1-1.6.265c-1.12-.009-1.692-.573-1.692-1.846,0-1.068.222-1.846,1.752-1.846s1.675.795,1.667,1.846v.222H95.974c.009.709.308,1.051,1.034,1.051a5.567,5.567,0,0,0,1.41-.239Zm-.615-1.778c0-.8-.1-1.154-.932-1.154-.846,0-1.009.35-1.009,1.154Z" transform="translate(-16.942 -9.592)" fill="#58595b"/>
      <path id="Path_118301" data-name="Path 118301" d="M100.2,60.218a6.965,6.965,0,0,1,1.41-.188c.786,0,1.521.248,1.521,1.248v2.385h-.556l-.034-.3a3.805,3.805,0,0,1-1.445.359A1.048,1.048,0,0,1,99.93,62.56c0-.812.556-1.1,1.667-1.1.248,0,.513.017.8.043v-.214c0-.547-.419-.692-.94-.692a6.959,6.959,0,0,0-1.171.145Zm2.188,1.7a6.688,6.688,0,0,0-.769-.043c-.838,0-.992.222-.992.65a.572.572,0,0,0,.641.65,2.88,2.88,0,0,0,1.12-.308v-.949Z" transform="translate(-17.624 -9.59)" fill="#58595b"/>
      <path id="Path_118302" data-name="Path 118302" d="M105.565,62.3c0,.436.128.564.368.573a1.681,1.681,0,0,0,.47-.06l.094.513a3.449,3.449,0,0,1-.761.1c-.624-.017-.906-.325-.906-1.1V58.01h.744V62.3Z" transform="translate(-18.336 -9.297)" fill="#58595b"/>
      <path id="Path_118303" data-name="Path 118303" d="M110.076,59.928v.564h-1.427V62.4c0,.47.2.607.539.607a4.038,4.038,0,0,0,.863-.145l.094.513a5.259,5.259,0,0,1-1.2.2c-.633,0-1.034-.308-1.034-1.171V60.493h-.8v-.564h.8V58.86h.744v1.068Z" transform="translate(-18.667 -9.42)" fill="#58595b"/>
      <path id="Path_118304" data-name="Path 118304" d="M112.332,60.1a3.221,3.221,0,0,1,1.376-.359,1.114,1.114,0,0,1,1.257,1.171v2.453h-.744V61.113c0-.5-.231-.812-.735-.812a2.767,2.767,0,0,0-1.162.333v2.727h-.744V58.01h.744V60.1Z" transform="translate(-19.316 -9.297)" fill="#58595b"/>
      <path id="Path_118305" data-name="Path 118305" d="M61.529,47.134c0,.3,0,.65-.769.65a4.57,4.57,0,0,0,.06-.65V44.16a4.57,4.57,0,0,0-.06-.65c.769,0,.769.359.769.65Zm1.427-3.18a.973.973,0,0,1,.906-.436,4.118,4.118,0,0,0-.462.462L62.2,45.4l1.744,1.744a7.826,7.826,0,0,0,.786.65,2.018,2.018,0,0,1-1.71-.65l-1.487-1.487Z" transform="translate(-11.936 -7.191)" fill="#fff"/>
      <path id="Path_118306" data-name="Path 118306" d="M69.354,43.51a2.137,2.137,0,1,1-2.094,2.137A2.07,2.07,0,0,1,69.354,43.51Zm0,3.983c.786,0,1.351-.829,1.351-1.838s-.556-1.846-1.351-1.846S68,44.638,68,45.655,68.568,47.493,69.354,47.493Z" transform="translate(-12.88 -7.191)" fill="#fff"/>
      <path id="Path_118307" data-name="Path 118307" d="M78.174,46.975a2,2,0,0,1-1.692.786,2.112,2.112,0,0,1-.12-4.223c.111-.009.274-.009.4-.009.547,0,1.248.034,1.248.034a.392.392,0,0,1-.385.419,4.371,4.371,0,0,0-1.137-.128,1.6,1.6,0,0,0-1.436,1.8,1.66,1.66,0,0,0,1.436,1.786,1.567,1.567,0,0,0,1.257-.675Z" transform="translate(-13.903 -7.194)" fill="#fff"/>
      <path id="Path_118308" data-name="Path 118308" d="M81.939,45.477h1.932V44.17c0-.3,0-.65.769-.65a4.738,4.738,0,0,0-.06.65v2.975a4.569,4.569,0,0,0,.06.65c-.769,0-.769-.359-.769-.65V45.836H81.939v1.308c0,.3,0,.65-.769.65a4.571,4.571,0,0,0,.06-.65V44.17a4.571,4.571,0,0,0-.06-.65c.769,0,.769.359.769.65Z" transform="translate(-14.9 -7.192)" fill="#fff"/>
      <path id="Path_118309" data-name="Path 118309" d="M88.869,47.734H88.16V44.17c0-.3,0-.65.769-.65a4.74,4.74,0,0,0-.06.65Z" transform="translate(-15.915 -7.192)" fill="#fff"/>
    </g>
    <g id="Group_135046" data-name="Group 135046" transform="translate(131.548 1.55)">
      <path id="Path_118310" data-name="Path 118310" d="M178.4,41.691c-.658,1.342-1.667,2.445-3.214,2.282-2.436,0-12.351-3.385-20.019,5.351,2.342-4.223,5.958-6.7,13.924-9.146,10.223-3.094,12.42-9,12.42-13.736,0-4.453-2.53-8.582-9.753-8.582-7.778,0-12.283,5.624-12.283,11.343,0,4.223,3.137,5.718,5.77,5.718,4.035,0,6.189-3.325,6.8-8.394h-.94c-.282,3.137-2.017,7.411-5.154,7.411-1.41,0-2.581-.983-2.581-3.94,0-4.035,2.248-11.343,8.343-11.343,4.265,0,5.06,3.052,5.06,5.906,0,3.231-1.034,11.018-8.77,14.343-8.488,3.658-12.334,6.095-14.719,12.89h.889c5.915-8.616,12.916-3.291,16.856-3.291,3.3,0,5.932-2.761,7.385-6.274Z" transform="translate(-153.28 -3.996)" fill="#f58220"/>
      <path id="Path_118311" data-name="Path 118311" d="M199.126,17.188c3.385,0,7.291.915,7.291,9.411,0,.222-.009.453-.017.7h5.855c-.2-8.206-6.513-11.377-12.215-11.377a15.785,15.785,0,0,0-10.274,4.188l1.5-4.761c1.094-3.325,2.47-7.462,5.736-7.462,3.154,0,9.42,3.282,12.967,3.026,3.906-.291,6.582-4.564,8.189-9.274-2.222,5.872-11.027-.385-16.446.821a13.031,13.031,0,0,0-8.385,6.171,51.784,51.784,0,0,0-2.958,6.881l-2.325,6.556h1.145A14.375,14.375,0,0,1,199.126,17.188Z" transform="translate(-158.328 -1.64)" fill="#f58220"/>
      <path id="Path_118312" data-name="Path 118312" d="M193.581,5.152a14.336,14.336,0,0,1,1.65-1.342A25.908,25.908,0,0,0,178.05,14.973a12.685,12.685,0,0,1,1.906.462A24.335,24.335,0,0,1,193.581,5.152Z" transform="translate(-156.877 -1.955)" fill="#f58220"/>
      <path id="Path_118313" data-name="Path 118313" d="M220.972,9.11c-.077.1-.145.205-.222.3a24.255,24.255,0,0,1,10.206,18.976h.684A25.9,25.9,0,0,0,220.972,9.11Z" transform="translate(-163.079 -2.725)" fill="#f58220"/>
      <g id="Group_135045" data-name="Group 135045" transform="translate(34.61 25.199)">
        <path id="Path_118314" data-name="Path 118314" d="M195.736,38.222,193.77,33.35h1.462l1.231,3.445,1.291-3.445h1.462l-3.086,7.172h-1.385Z" transform="translate(-193.77 -31.444)" fill="#f58220"/>
        <path id="Path_118315" data-name="Path 118315" d="M201.986,36.591a1.638,1.638,0,0,0,.205.444,1.488,1.488,0,0,0,.744.539,1.675,1.675,0,0,0,.462.068,2.535,2.535,0,0,0,.359-.026,1.486,1.486,0,0,0,.333-.094,1.319,1.319,0,0,0,.291-.145.99.99,0,0,0,.222-.2l1.427-.017a2.1,2.1,0,0,1-.376.675,2.813,2.813,0,0,1-.615.564,3.169,3.169,0,0,1-.769.368,2.931,2.931,0,0,1-.821.12,3.035,3.035,0,0,1-1.094-.2,2.9,2.9,0,0,1-1.539-1.513,2.865,2.865,0,0,1-.205-1.094,2.954,2.954,0,0,1,.205-1.111,3.023,3.023,0,0,1,1.539-1.581,2.77,2.77,0,0,1,1.111-.214,2.554,2.554,0,0,1,1.06.214,2.77,2.77,0,0,1,.889.641,2.966,2.966,0,0,1,.6.915,2.754,2.754,0,0,1,.205,1.06.647.647,0,0,1-.009.128.5.5,0,0,1-.017.12c-.009.043-.009.077-.017.12s-.009.077-.017.12c-.009.017-.009.026-.017.034s-.009.017-.009.034v.043h-4.146Zm2.94-1.145a1.6,1.6,0,0,0-.222-.41,1.377,1.377,0,0,0-.342-.325,1.509,1.509,0,0,0-.427-.205,1.7,1.7,0,0,0-.479-.068h-.068a1.383,1.383,0,0,0-.453.094,1.8,1.8,0,0,0-.419.222,1.52,1.52,0,0,0-.342.316,1.194,1.194,0,0,0-.205.4v-.017h2.958Z" transform="translate(-194.763 -31.419)" fill="#f58220"/>
        <path id="Path_118316" data-name="Path 118316" d="M213.56,38.7h-1.18v-.727h-.017a2.141,2.141,0,0,1-.291.333,2.048,2.048,0,0,1-.35.256,2.917,2.917,0,0,1-.41.188,3.328,3.328,0,0,1-.419.1h-.043a.064.064,0,0,0-.043.009.108.108,0,0,0-.051.009.371.371,0,0,0-.043.009h-.043a.064.064,0,0,0-.043.009h-.085a2.655,2.655,0,0,1-.59-.06,3.2,3.2,0,0,1-.53-.162,2.084,2.084,0,0,1-.462-.282,2.292,2.292,0,0,1-.385-.376,2.987,2.987,0,0,1-.282-.419,2.971,2.971,0,0,1-.342-1,3.832,3.832,0,0,1-.043-.547,2.749,2.749,0,0,1,.043-.539,3,3,0,0,1,.12-.5,1.984,1.984,0,0,1,.214-.453,4.656,4.656,0,0,1,.316-.436,3.269,3.269,0,0,1,.436-.41,2.5,2.5,0,0,1,.47-.291,2.327,2.327,0,0,1,.521-.171,2.453,2.453,0,0,1,.573-.06,2.1,2.1,0,0,1,.53.06,2.372,2.372,0,0,1,.487.18,2.04,2.04,0,0,1,.436.291,2.275,2.275,0,0,1,.35.4v-.778h1.18V38.7Zm-1.325-3.3a1.471,1.471,0,0,0-.333-.513,1.3,1.3,0,0,0-.5-.342,1.623,1.623,0,0,0-.624-.111,1.758,1.758,0,0,0-.65.12,1.409,1.409,0,0,0-.513.35,1.771,1.771,0,0,0-.333.539,1.743,1.743,0,0,0-.111.641,1.612,1.612,0,0,0,.12.615,1.452,1.452,0,0,0,.35.5,1.656,1.656,0,0,0,.513.333,1.442,1.442,0,0,0,.607.1,1.516,1.516,0,0,0,.633-.1,1.347,1.347,0,0,0,.5-.35,1.6,1.6,0,0,0,.333-.521,1.852,1.852,0,0,0,.1-.633v-.017A1.554,1.554,0,0,0,212.235,35.4Z" transform="translate(-195.824 -31.421)" fill="#f58220"/>
        <path id="Path_118317" data-name="Path 118317" d="M215.64,33.322h1.171v.487h.017a1.448,1.448,0,0,1,.231-.274,1.138,1.138,0,0,1,.256-.2,1.153,1.153,0,0,1,.3-.12,1.607,1.607,0,0,1,.368-.043l.094-.017v1.248a.351.351,0,0,1-.068.026c-.026,0-.043.009-.06.009a.167.167,0,0,0-.068.009.124.124,0,0,0-.06.017.8.8,0,0,0-.137.034c-.043.017-.094.034-.137.051s-.085.043-.128.06a.326.326,0,0,0-.111.077,1.161,1.161,0,0,0-.205.205.636.636,0,0,0-.1.248,2.452,2.452,0,0,0-.043.265c-.009.094-.017.188-.017.282v3.026h-1.291V33.322Z" transform="translate(-196.946 -31.416)" fill="#f58220"/>
        <path id="Path_118318" data-name="Path 118318" d="M221.352,34.8a.543.543,0,0,0-.051-.154.321.321,0,0,0-.12-.12.434.434,0,0,0-.154-.077.551.551,0,0,0-.171-.026.728.728,0,0,0-.2.026.591.591,0,0,0-.162.085.521.521,0,0,0-.1.137.435.435,0,0,0-.043.188v.009a.28.28,0,0,0,.026.171.348.348,0,0,0,.1.12,1.383,1.383,0,0,0,.154.085.927.927,0,0,0,.162.068.264.264,0,0,0,.068.017.249.249,0,0,0,.077.017.264.264,0,0,0,.068.017.217.217,0,0,0,.06.017,5.6,5.6,0,0,1,.607.222,4.28,4.28,0,0,1,.556.291.956.956,0,0,1,.385.436,1.613,1.613,0,0,1,.128.675,1.783,1.783,0,0,1-.034.368,2.258,2.258,0,0,1-.1.342,1.5,1.5,0,0,1-.171.3,2.335,2.335,0,0,1-.239.282,1.192,1.192,0,0,1-.231.18c-.085.051-.171.1-.274.154a1.967,1.967,0,0,1-.291.1,1.826,1.826,0,0,1-.291.077.237.237,0,0,0-.077.009.249.249,0,0,0-.077.017h-.043a.077.077,0,0,0-.043.009h-.085a2.009,2.009,0,0,1-1.385-.5,1.748,1.748,0,0,1-.41-.59,2.26,2.26,0,0,1-.162-.752l1.316-.017a.764.764,0,0,0,.077.248.838.838,0,0,0,.145.2.557.557,0,0,0,.2.128.806.806,0,0,0,.256.043.932.932,0,0,0,.222-.026.6.6,0,0,0,.2-.094.5.5,0,0,0,.137-.162.473.473,0,0,0,.051-.222.406.406,0,0,0-.051-.205.6.6,0,0,0-.137-.162.874.874,0,0,0-.188-.12,2.185,2.185,0,0,0-.205-.094.256.256,0,0,0-.085-.034c-.026-.009-.06-.017-.094-.026s-.051-.026-.077-.034l-.077-.026a.264.264,0,0,0-.068-.017,2464.157,2464.157,0,0,1-.18-.051.62.62,0,0,1-.1-.043.316.316,0,0,1-.094-.043,1,1,0,0,1-.094-.043.332.332,0,0,1-.094-.051c-.017-.009-.026-.017-.043-.017s-.026-.017-.043-.017l-.051-.026c-.017-.009-.026-.017-.043-.026a.15.15,0,0,0-.043-.034c-.017-.009-.026-.017-.043-.026s-.034-.026-.051-.043-.026-.026-.043-.043a1.473,1.473,0,0,1-.231-.231,1.132,1.132,0,0,1-.171-.274,1.157,1.157,0,0,1-.094-.291,2.032,2.032,0,0,1-.026-.333,1.525,1.525,0,0,1,.137-.667,1.614,1.614,0,0,1,.41-.53,2.3,2.3,0,0,1,.59-.342,1.885,1.885,0,0,1,.667-.12,1.734,1.734,0,0,1,.633.12,1.88,1.88,0,0,1,.564.368,1.932,1.932,0,0,1,.4.53,1.427,1.427,0,0,1,.137.633v-.017h-1.188Z" transform="translate(-197.41 -31.41)" fill="#f58220"/>
        <path id="Path_118319" data-name="Path 118319" d="M230.095,33.381a2.835,2.835,0,0,1,.906.641,2.779,2.779,0,0,1,.821,2.017,2.941,2.941,0,0,1-.205,1.1,2.958,2.958,0,0,1-1.556,1.53,3.082,3.082,0,0,1-1.1.2,2.853,2.853,0,0,1-1.086-.205,2.8,2.8,0,0,1-.923-.624,2.77,2.77,0,0,1-.624-.915,2.866,2.866,0,0,1-.205-1.094,2.875,2.875,0,0,1,1.786-2.658,3,3,0,0,1,1.12-.205V33.15A2.817,2.817,0,0,1,230.095,33.381Zm-1.205,1.051c-.017,0-.043.009-.06.009h-.06a.031.031,0,0,1-.026.009h-.034a1.118,1.118,0,0,0-.239.077,1.364,1.364,0,0,0-.231.1c-.077.043-.154.094-.222.137a1.1,1.1,0,0,0-.18.162,1.615,1.615,0,0,0-.2.239,1.363,1.363,0,0,0-.137.274,1.247,1.247,0,0,0-.085.291,1.724,1.724,0,0,0-.026.308,1.608,1.608,0,0,0,.111.615,1.656,1.656,0,0,0,.333.513,1.5,1.5,0,0,0,.5.35,1.568,1.568,0,0,0,.607.12,1.653,1.653,0,0,0,.624-.111,1.541,1.541,0,0,0,.513-.342,1.479,1.479,0,0,0,.333-.513,1.653,1.653,0,0,0,.111-.624,1.537,1.537,0,0,0-.12-.607,1.667,1.667,0,0,0-.342-.521,1.568,1.568,0,0,0-.513-.35,1.612,1.612,0,0,0-.615-.12v-.017C228.932,34.424,228.907,34.432,228.889,34.432Z" transform="translate(-198.468 -31.415)" fill="#f58220"/>
        <path id="Path_118320" data-name="Path 118320" d="M233.593,34.172h-.453V33.026h.453a2.368,2.368,0,0,1,.128-.7,2.052,2.052,0,0,1,.35-.624,1.435,1.435,0,0,1,.556-.436,1.777,1.777,0,0,1,.727-.145h.35V32.4c-.137.017-.248.026-.35.043a.788.788,0,0,0-.239.077.307.307,0,0,0-.154.171,1.275,1.275,0,0,0-.068.359l.744-.017V34.18h-.744v4.231H233.6v-4.24Z" transform="translate(-199.488 -31.12)" fill="#f58220"/>
        <path id="Path_118321" data-name="Path 118321" d="M199.689,47.653h-1.18v-.727h-.017a1.81,1.81,0,0,1-.325.393,2,2,0,0,1-.419.282,2.4,2.4,0,0,1-.479.154,2.471,2.471,0,0,1-.5.068h-.068a2.38,2.38,0,0,1-.564-.06,3.717,3.717,0,0,1-.521-.171,2.567,2.567,0,0,1-.462-.282,2.672,2.672,0,0,1-.393-.368,2.4,2.4,0,0,1-.308-.419,4.927,4.927,0,0,1-.231-.479,2.97,2.97,0,0,1-.2-1.043,3.594,3.594,0,0,1,.043-.53,2.848,2.848,0,0,1,.137-.513,2.693,2.693,0,0,1,.538-.923,1.792,1.792,0,0,1,.376-.342,2.658,2.658,0,0,1,.453-.274,2.219,2.219,0,0,1,.5-.2,2.145,2.145,0,0,1,.513-.085h.017c.009,0,.017,0,.017-.009h.18a2.545,2.545,0,0,1,.436.06,4.122,4.122,0,0,1,.427.137,1.981,1.981,0,0,1,.393.231,1.8,1.8,0,0,1,.325.3V40.49h1.291v7.163Zm-1.325-3.291a1.663,1.663,0,0,0-.35-.513,1.7,1.7,0,0,0-.521-.35,1.6,1.6,0,0,0-.607-.12,1.473,1.473,0,0,0-.581.12,1.733,1.733,0,0,0-.855.855,1.473,1.473,0,0,0-.12.581,1.683,1.683,0,0,0,.111.624,1.636,1.636,0,0,0,.333.53,1.5,1.5,0,0,0,.5.368,1.623,1.623,0,0,0,.624.12,1.507,1.507,0,0,0,1.128-.479,1.517,1.517,0,0,0,.35-.521,1.612,1.612,0,0,0,.12-.615v-.017A1.7,1.7,0,0,0,198.364,44.362Z" transform="translate(-193.808 -32.481)" fill="#f58220"/>
        <path id="Path_118322" data-name="Path 118322" d="M205.525,42.611a2.835,2.835,0,0,1,.906.641,2.779,2.779,0,0,1,.821,2.017,2.941,2.941,0,0,1-.205,1.1,2.958,2.958,0,0,1-1.556,1.53,2.937,2.937,0,0,1-1.1.2,2.853,2.853,0,0,1-1.086-.205,2.8,2.8,0,0,1-.923-.624,2.769,2.769,0,0,1-.624-.915,2.866,2.866,0,0,1-.205-1.094,2.875,2.875,0,0,1,1.786-2.658,3,3,0,0,1,1.12-.205V42.38A3.23,3.23,0,0,1,205.525,42.611Zm-1.214,1.051c-.017,0-.043.009-.06.009h-.06a.031.031,0,0,1-.026.009h-.034a1.118,1.118,0,0,0-.239.077,1.364,1.364,0,0,0-.231.1c-.077.043-.154.094-.222.137a1.1,1.1,0,0,0-.18.162,1.614,1.614,0,0,0-.2.239,1.363,1.363,0,0,0-.137.274,2.188,2.188,0,0,0-.085.291,1.724,1.724,0,0,0-.026.308,1.536,1.536,0,0,0,.111.607,1.656,1.656,0,0,0,.333.513,1.5,1.5,0,0,0,.5.35,1.568,1.568,0,0,0,.607.12,1.653,1.653,0,0,0,.624-.111,1.541,1.541,0,0,0,.513-.342,1.478,1.478,0,0,0,.333-.513,1.653,1.653,0,0,0,.111-.624,1.612,1.612,0,0,0-.12-.615,1.666,1.666,0,0,0-.342-.521,1.568,1.568,0,0,0-.513-.35,1.612,1.612,0,0,0-.615-.12v-.017C204.354,43.654,204.337,43.662,204.311,43.662Z" transform="translate(-194.9 -32.755)" fill="#f58220"/>
        <path id="Path_118323" data-name="Path 118323" d="M209.06,40.48h1.291v1.171H209.06Zm0,1.8h1.291v5.376H209.06Z" transform="translate(-195.991 -32.479)" fill="#f58220"/>
        <path id="Path_118324" data-name="Path 118324" d="M211.787,42.554h1.2v.5H213a1.454,1.454,0,0,1,.256-.256,1.577,1.577,0,0,1,.333-.205,2.78,2.78,0,0,1,.376-.128,1.509,1.509,0,0,1,.393-.06h.239a.026.026,0,0,0,.017.009h.017a1.818,1.818,0,0,1,.376.06,3.2,3.2,0,0,1,.368.137,2.262,2.262,0,0,1,.342.205,1.626,1.626,0,0,1,.282.256l.017.017.017.017c0,.009,0,.017.009.017l.017.017.017.017.017.017c0,.009,0,.017.009.017l.017.017a2.088,2.088,0,0,1,.248.444,1.849,1.849,0,0,1,.12.487c.017.162.034.325.043.5s.017.342.017.513V47.9h-1.291v-2.9a.146.146,0,0,1-.009-.06v-.068l-.026-.205c-.017-.068-.026-.137-.043-.2s-.043-.137-.06-.2a1.062,1.062,0,0,0-.085-.171.735.735,0,0,0-.154-.171,1.141,1.141,0,0,0-.2-.137,1.021,1.021,0,0,0-.222-.094,1.1,1.1,0,0,0-.231-.043h-.154a.026.026,0,0,1-.017.009h-.017a.936.936,0,0,0-.222.051,1.217,1.217,0,0,0-.214.1,1.064,1.064,0,0,0-.188.137.858.858,0,0,0-.137.171,1.063,1.063,0,0,0-.085.171,1.322,1.322,0,0,0-.06.2l-.026.1a.429.429,0,0,0-.017.1c-.009.043-.009.077-.017.111s-.009.068-.009.1a.648.648,0,0,0-.009.128V47.93H211.77V42.554Z" transform="translate(-196.384 -32.758)" fill="#f58220"/>
        <path id="Path_118325" data-name="Path 118325" d="M223.96,42.552v4.556a4.409,4.409,0,0,1-.043.607,3.11,3.11,0,0,1-.12.521,2.088,2.088,0,0,1-.222.487,2.9,2.9,0,0,1-.368.462,3.111,3.111,0,0,1-.453.376,3.411,3.411,0,0,1-.521.291,2.574,2.574,0,0,1-.564.188,2.763,2.763,0,0,1-.59.06,2.991,2.991,0,0,1-.829-.12,2.931,2.931,0,0,1-.778-.368,2.737,2.737,0,0,1-.641-.564,2.254,2.254,0,0,1-.41-.727h1.462c.051.051.111.1.171.154a1.223,1.223,0,0,0,.205.137c.077.043.154.068.231.1l.231.077c.017.009.026.009.043.017s.034.009.051.009.026.009.043.017a.372.372,0,0,1,.043.009h.043a.064.064,0,0,1,.043.009h.154a.031.031,0,0,1,.026-.009h.094a.031.031,0,0,1,.026-.009h.043a1.892,1.892,0,0,0,.256-.06c.077-.026.162-.051.248-.085a1.475,1.475,0,0,0,.231-.128,1.6,1.6,0,0,0,.205-.154,2.947,2.947,0,0,0,.231-.248.943.943,0,0,0,.128-.239,1.731,1.731,0,0,0,.077-.282c.017-.094.043-.2.06-.3,0-.009,0-.009.009-.017v-.051a.026.026,0,0,1,.009-.017v-.034l-.017-.034a2.566,2.566,0,0,1-.342.393,2.723,2.723,0,0,1-.4.3,2.608,2.608,0,0,1-.453.171,2.03,2.03,0,0,1-.521.06h-.06a.146.146,0,0,1-.06-.009.167.167,0,0,1-.068-.009c-.017,0-.043-.009-.06-.009-.043-.009-.085-.009-.128-.017a.273.273,0,0,1-.12-.026,2.347,2.347,0,0,1-.4-.111,3.784,3.784,0,0,1-.385-.171,3.364,3.364,0,0,1-.342-.222,2.145,2.145,0,0,1-.3-.265,2.778,2.778,0,0,1-.342-.427,3.852,3.852,0,0,1-.256-.5,3.763,3.763,0,0,1-.154-.53,2.9,2.9,0,0,1-.06-.547v-.1a2.61,2.61,0,0,1,.051-.513,2.534,2.534,0,0,1,.145-.5,2.91,2.91,0,0,1,.231-.462,2.337,2.337,0,0,1,.3-.4,2.867,2.867,0,0,1,.419-.368,2.719,2.719,0,0,1,.487-.291,2.435,2.435,0,0,1,.547-.188,2.655,2.655,0,0,1,.59-.06,1.987,1.987,0,0,1,.5.06,3.511,3.511,0,0,1,.479.162,1.888,1.888,0,0,1,.4.282,1.589,1.589,0,0,1,.3.4l.017-.017v-.735h1.18Zm-1.333,2.094a1.6,1.6,0,0,0-.35-.521,1.517,1.517,0,0,0-.521-.35,1.655,1.655,0,0,0-.624-.12,1.258,1.258,0,0,0-.308.034,2.014,2.014,0,0,0-.3.094,1.343,1.343,0,0,0-.265.154,2.359,2.359,0,0,0-.231.2,1.615,1.615,0,0,0-.2.239,1.083,1.083,0,0,0-.128.265,1.826,1.826,0,0,0,.009,1.231,1.493,1.493,0,0,0,.342.521,1.6,1.6,0,0,0,.521.35,1.746,1.746,0,0,0,.641.12,1.484,1.484,0,0,0,.59-.12,1.386,1.386,0,0,0,.487-.359,1.8,1.8,0,0,0,.333-.521,1.678,1.678,0,0,0,.1-.59v-.017A1.32,1.32,0,0,0,222.627,44.647Z" transform="translate(-197.334 -32.757)" fill="#f58220"/>
        <path id="Path_118326" data-name="Path 118326" d="M229.383,43.42h-.633V42.275h.633v-1.8h1.291v1.8h.778V43.42h-.778v4.231h-1.291Z" transform="translate(-198.85 -32.479)" fill="#f58220"/>
        <path id="Path_118327" data-name="Path 118327" d="M232.67,40.48h1.291v2.205a.851.851,0,0,1,.18-.171,1.519,1.519,0,0,1,.231-.145c.085-.043.171-.085.256-.12a1.55,1.55,0,0,1,.265-.077.146.146,0,0,0,.06-.009.158.158,0,0,0,.06-.017.127.127,0,0,0,.051-.009c.017,0,.043-.009.06-.009a.146.146,0,0,0,.06-.009c.017,0,.043-.009.06-.009a.093.093,0,0,1,.051-.009h.12a.065.065,0,0,0,.034.009h.094a.031.031,0,0,0,.026.009h.026a2.674,2.674,0,0,1,.376.085c.12.043.239.085.368.145a3.05,3.05,0,0,1,.325.214,1.568,1.568,0,0,1,.274.256,2.149,2.149,0,0,1,.291.436,1.809,1.809,0,0,1,.145.462c.026.162.043.325.06.5s.017.342.017.521v2.889h-1.291v-2.7a3.81,3.81,0,0,0-.06-.556,3.377,3.377,0,0,0-.137-.5.7.7,0,0,0-.316-.35,1.251,1.251,0,0,0-.581-.12,1.327,1.327,0,0,0-.265.026,1.138,1.138,0,0,0-.239.085.888.888,0,0,0-.205.145,1.36,1.36,0,0,0-.171.205,1.288,1.288,0,0,0-.077.154c-.026.06-.043.12-.06.171a1.5,1.5,0,0,0-.034.171c-.009.06-.017.12-.026.171a.646.646,0,0,0-.009.128v3h-1.291V40.48Z" transform="translate(-199.419 -32.479)" fill="#f58220"/>
        <path id="Path_118328" data-name="Path 118328" d="M240.576,45.821a1.639,1.639,0,0,0,.205.444,1.488,1.488,0,0,0,.744.539,1.675,1.675,0,0,0,.462.068,2.535,2.535,0,0,0,.359-.026,1.486,1.486,0,0,0,.333-.094,1.318,1.318,0,0,0,.291-.145.99.99,0,0,0,.222-.2l1.427-.017a2.1,2.1,0,0,1-.376.675,2.813,2.813,0,0,1-.615.564,3.168,3.168,0,0,1-.769.368,2.931,2.931,0,0,1-.821.12,3.035,3.035,0,0,1-1.094-.2,2.9,2.9,0,0,1-1.539-1.513,2.866,2.866,0,0,1-.205-1.094,2.954,2.954,0,0,1,.205-1.111,3.023,3.023,0,0,1,1.539-1.581,2.77,2.77,0,0,1,1.111-.214,2.554,2.554,0,0,1,1.06.214,2.77,2.77,0,0,1,.889.641,2.966,2.966,0,0,1,.6.915,2.755,2.755,0,0,1,.205,1.06.648.648,0,0,1-.009.128.5.5,0,0,1-.017.12c-.009.043-.009.077-.017.12a.576.576,0,0,1-.017.12c-.009.017-.009.026-.017.034s-.009.017-.009.034v.026Zm2.94-1.145a1.6,1.6,0,0,0-.222-.41,1.377,1.377,0,0,0-.342-.325,1.509,1.509,0,0,0-.427-.205,1.7,1.7,0,0,0-.479-.068h-.068a1.383,1.383,0,0,0-.453.094,1.8,1.8,0,0,0-.419.222,1.519,1.519,0,0,0-.342.316,1.194,1.194,0,0,0-.205.4v-.017h2.958Z" transform="translate(-200.368 -32.76)" fill="#f58220"/>
        <path id="Path_118329" data-name="Path 118329" d="M194.31,49.72H195.6v1.171H194.31Zm0,1.8H195.6v5.376H194.31Z" transform="translate(-193.848 -33.821)" fill="#f58220"/>
        <path id="Path_118330" data-name="Path 118330" d="M197.027,51.79h1.18v.5h.017a.868.868,0,0,1,.162-.231.813.813,0,0,1,.239-.171,1.968,1.968,0,0,1,.274-.128,3.053,3.053,0,0,1,.3-.085c.034-.009.068-.009.1-.017a.588.588,0,0,0,.111-.017h.06a.108.108,0,0,0,.051-.009h.1a2.228,2.228,0,0,1,.41.043,1.455,1.455,0,0,1,.385.128,1.988,1.988,0,0,1,.35.205,1.469,1.469,0,0,1,.282.282l.017.017.017.017c0,.009,0,.017.009.017l.017.017a.15.15,0,0,1,.034.043.187.187,0,0,0,.026.043.15.15,0,0,0,.034-.043.187.187,0,0,1,.026-.043l.043-.043a.15.15,0,0,1,.043-.034,2.072,2.072,0,0,1,.282-.265,1.907,1.907,0,0,1,.342-.205,2.781,2.781,0,0,1,.376-.128,1.5,1.5,0,0,1,.385-.06h.017a.031.031,0,0,0,.026-.009h.145a2.626,2.626,0,0,1,.453.043,2.76,2.76,0,0,1,.436.12,1.461,1.461,0,0,1,.4.2,1.708,1.708,0,0,1,.342.316,2.228,2.228,0,0,1,.3.419,1.5,1.5,0,0,1,.154.453,2.936,2.936,0,0,1,.068.479,4.9,4.9,0,0,1,.026.513v3H203.78V54.2a.145.145,0,0,1-.009-.06v-.18a.146.146,0,0,1-.009-.06v-.06c-.009-.026-.009-.051-.017-.077a.25.25,0,0,0-.017-.077c-.009-.017-.009-.043-.017-.068a.25.25,0,0,0-.017-.077.728.728,0,0,0-.051-.145.935.935,0,0,0-.068-.128c-.043-.051-.085-.1-.128-.145a.865.865,0,0,0-.171-.12,1.955,1.955,0,0,0-.2-.085.9.9,0,0,0-.205-.051h-.1a1.327,1.327,0,0,0-.265.026,1.213,1.213,0,0,0-.248.085.889.889,0,0,0-.205.145,1.359,1.359,0,0,0-.171.205.657.657,0,0,0-.085.154.762.762,0,0,0-.051.171,1.765,1.765,0,0,0-.034.188l-.026.18a.647.647,0,0,0-.009.128v2.983h-1.291V54.268a2.317,2.317,0,0,0-.009-.239,2.492,2.492,0,0,0-.077-.5,1.045,1.045,0,0,0-.12-.239.858.858,0,0,0-.162-.188,1.223,1.223,0,0,0-.205-.137.843.843,0,0,0-.231-.085,1.14,1.14,0,0,0-.239-.026,1.155,1.155,0,0,0-.521.1.616.616,0,0,0-.3.308,2.55,2.55,0,0,0-.154.427,2.07,2.07,0,0,0-.06.462.526.526,0,0,0-.009.111v2.855H197.01V51.79Z" transform="translate(-194.241 -34.096)" fill="#f58220"/>
        <path id="Path_118331" data-name="Path 118331" d="M207.7,51.794h1.18v.7h.017a1.753,1.753,0,0,1,.333-.376,1.72,1.72,0,0,1,.4-.265,2.183,2.183,0,0,1,.47-.162,2.568,2.568,0,0,1,.521-.051,2.919,2.919,0,0,1,.556.051,2.291,2.291,0,0,1,.949.419,3.73,3.73,0,0,1,.436.4,2.449,2.449,0,0,1,.316.419,2.735,2.735,0,0,1,.231.479,2.863,2.863,0,0,1,.145.53,2.987,2.987,0,0,1,.051.556,2.927,2.927,0,0,1-.188,1.068,3.051,3.051,0,0,1-.564.923,2.377,2.377,0,0,1-.863.633,2.748,2.748,0,0,1-1.077.205,2.849,2.849,0,0,1-.479-.043,2.344,2.344,0,0,1-.436-.128,1.286,1.286,0,0,1-.376-.222,1.812,1.812,0,0,1-.333-.342l-.017-.017v2.376H207.68V51.794Zm2.171,1.222a1.568,1.568,0,0,0-.513.35,1.656,1.656,0,0,0-.333.513,1.622,1.622,0,0,0-.111.624,2.217,2.217,0,0,0,.026.342,1.914,1.914,0,0,0,.085.316,1.154,1.154,0,0,0,.162.282,2.088,2.088,0,0,0,.231.248c.051.043.111.085.171.128a2.161,2.161,0,0,0,.188.111,2.088,2.088,0,0,0,.205.085.958.958,0,0,0,.2.051c.017.009.026.009.034.017s.017.009.034.009a.031.031,0,0,0,.026.009h.162a1.656,1.656,0,0,0,.624-.12,1.568,1.568,0,0,0,.513-.35,1.623,1.623,0,0,0,.342-.521,1.689,1.689,0,0,0,.12-.624,1.552,1.552,0,0,0-.111-.6,1.8,1.8,0,0,0-.333-.521,1.472,1.472,0,0,0-.487-.35,1.568,1.568,0,0,0-.607-.12v-.017A1.628,1.628,0,0,0,209.868,53.016Z" transform="translate(-195.79 -34.1)" fill="#f58220"/>
        <path id="Path_118332" data-name="Path 118332" d="M218.915,51.841a2.835,2.835,0,0,1,.906.641,2.779,2.779,0,0,1,.821,2.017,2.941,2.941,0,0,1-.205,1.1,2.958,2.958,0,0,1-1.556,1.53,2.937,2.937,0,0,1-1.1.2,2.853,2.853,0,0,1-1.086-.205,2.8,2.8,0,0,1-.923-.624,2.769,2.769,0,0,1-.624-.915,2.866,2.866,0,0,1-.205-1.094,2.875,2.875,0,0,1,1.786-2.658,3,3,0,0,1,1.12-.205V51.61A3.231,3.231,0,0,1,218.915,51.841Zm-1.205,1.06c-.017,0-.043.009-.06.009h-.06a.031.031,0,0,1-.026.009h-.034a1.955,1.955,0,0,0-.239.068,1.363,1.363,0,0,0-.231.1c-.077.043-.154.094-.222.137a1.1,1.1,0,0,0-.179.162,1.614,1.614,0,0,0-.2.239,1.362,1.362,0,0,0-.137.274,1.247,1.247,0,0,0-.085.291,1.722,1.722,0,0,0-.026.308,1.536,1.536,0,0,0,.111.607,1.655,1.655,0,0,0,.333.513,1.5,1.5,0,0,0,.5.35,1.568,1.568,0,0,0,.607.12,1.653,1.653,0,0,0,.624-.111,1.542,1.542,0,0,0,.513-.342,1.478,1.478,0,0,0,.333-.513,1.653,1.653,0,0,0,.111-.624,1.612,1.612,0,0,0-.12-.615,1.667,1.667,0,0,0-.342-.521,1.568,1.568,0,0,0-.513-.35,1.612,1.612,0,0,0-.615-.12v-.017A.186.186,0,0,1,217.709,52.9Z" transform="translate(-196.845 -34.096)" fill="#f58220"/>
        <path id="Path_118333" data-name="Path 118333" d="M224.532,53.257a.542.542,0,0,0-.051-.154.321.321,0,0,0-.12-.12.317.317,0,0,0-.154-.068,1.18,1.18,0,0,0-.171-.026.729.729,0,0,0-.2.026.591.591,0,0,0-.162.085.521.521,0,0,0-.1.137.435.435,0,0,0-.043.188v.009a.28.28,0,0,0,.026.171.348.348,0,0,0,.1.12,1.384,1.384,0,0,0,.154.085.927.927,0,0,0,.162.068.264.264,0,0,0,.068.017.25.25,0,0,0,.077.017.264.264,0,0,0,.068.017.218.218,0,0,0,.06.017,5.6,5.6,0,0,1,.607.222,4.281,4.281,0,0,1,.556.291.956.956,0,0,1,.385.436,1.613,1.613,0,0,1,.128.675,1.783,1.783,0,0,1-.034.368,2.26,2.26,0,0,1-.1.342,1.5,1.5,0,0,1-.171.3,2.334,2.334,0,0,1-.239.282,1.192,1.192,0,0,1-.231.18c-.085.051-.171.1-.274.154a1.967,1.967,0,0,1-.291.1,1.825,1.825,0,0,1-.291.077.237.237,0,0,0-.077.009.249.249,0,0,0-.077.017H224.1a.077.077,0,0,0-.043.009h-.085a2.009,2.009,0,0,1-1.385-.5,1.748,1.748,0,0,1-.41-.59,2.26,2.26,0,0,1-.162-.752l1.316-.017a.764.764,0,0,0,.077.248.837.837,0,0,0,.145.2.557.557,0,0,0,.2.128.806.806,0,0,0,.256.043.931.931,0,0,0,.222-.026.6.6,0,0,0,.2-.094.5.5,0,0,0,.137-.162.473.473,0,0,0,.051-.222.406.406,0,0,0-.051-.205.6.6,0,0,0-.137-.162,1.406,1.406,0,0,0-.188-.12,2.186,2.186,0,0,0-.205-.094.886.886,0,0,0-.085-.034c-.026-.009-.06-.017-.094-.026a.3.3,0,0,0-.077-.034l-.077-.026a.264.264,0,0,0-.068-.017c-.017-.009-.043-.009-.06-.017a.159.159,0,0,0-.06-.017c-.017-.009-.043-.009-.06-.017a.619.619,0,0,1-.1-.043,844.733,844.733,0,0,1-.188-.085.2.2,0,0,1-.094-.051c-.017-.009-.026-.017-.043-.017s-.026-.009-.043-.017l-.051-.026c-.017-.009-.026-.017-.043-.026s-.026-.026-.043-.034-.026-.017-.043-.026-.034-.026-.051-.043l-.043-.043a1.473,1.473,0,0,1-.231-.231,1.132,1.132,0,0,1-.171-.274,1.156,1.156,0,0,1-.094-.291,2.032,2.032,0,0,1-.026-.333,1.525,1.525,0,0,1,.137-.667,1.614,1.614,0,0,1,.41-.53,2.3,2.3,0,0,1,.59-.342,1.885,1.885,0,0,1,.667-.12,1.734,1.734,0,0,1,.633.12,1.88,1.88,0,0,1,.564.368,1.933,1.933,0,0,1,.4.53,1.427,1.427,0,0,1,.137.633v-.017h-1.188Z" transform="translate(-197.871 -34.093)" fill="#f58220"/>
        <path id="Path_118334" data-name="Path 118334" d="M229.532,53.257a.544.544,0,0,0-.051-.154.322.322,0,0,0-.12-.12.317.317,0,0,0-.154-.068,1.179,1.179,0,0,0-.171-.026.729.729,0,0,0-.2.026.591.591,0,0,0-.162.085.521.521,0,0,0-.1.137.435.435,0,0,0-.043.188v.009a.28.28,0,0,0,.026.171.348.348,0,0,0,.1.12,1.384,1.384,0,0,0,.154.085.926.926,0,0,0,.162.068.264.264,0,0,0,.068.017.25.25,0,0,0,.077.017.264.264,0,0,0,.068.017.218.218,0,0,0,.06.017,5.6,5.6,0,0,1,.607.222,4.281,4.281,0,0,1,.556.291.956.956,0,0,1,.385.436,1.613,1.613,0,0,1,.128.675,1.784,1.784,0,0,1-.034.368,2.26,2.26,0,0,1-.1.342,1.5,1.5,0,0,1-.171.3,2.336,2.336,0,0,1-.239.282,1.192,1.192,0,0,1-.231.18c-.085.051-.171.1-.274.154a1.967,1.967,0,0,1-.291.1,1.826,1.826,0,0,1-.291.077.237.237,0,0,0-.077.009.25.25,0,0,0-.077.017H229.1a.077.077,0,0,0-.043.009h-.085a2.009,2.009,0,0,1-1.385-.5,1.749,1.749,0,0,1-.41-.59,2.26,2.26,0,0,1-.162-.752l1.316-.017a.765.765,0,0,0,.077.248.838.838,0,0,0,.145.2.557.557,0,0,0,.2.128.806.806,0,0,0,.256.043.931.931,0,0,0,.222-.026.6.6,0,0,0,.2-.094.5.5,0,0,0,.137-.162.473.473,0,0,0,.051-.222.406.406,0,0,0-.051-.205.6.6,0,0,0-.137-.162,1.406,1.406,0,0,0-.188-.12,2.182,2.182,0,0,0-.205-.094.883.883,0,0,0-.085-.034c-.026-.009-.06-.017-.094-.026a.3.3,0,0,0-.077-.034l-.077-.026a.265.265,0,0,0-.068-.017c-.017-.009-.043-.009-.06-.017a.159.159,0,0,0-.06-.017c-.017-.009-.043-.009-.06-.017a.619.619,0,0,1-.1-.043,1768656837952.192,1768656837952.192,0,0,1-.188-.085.2.2,0,0,1-.094-.051c-.017-.009-.026-.017-.043-.017s-.026-.009-.043-.017l-.051-.026c-.017-.009-.026-.017-.043-.026s-.026-.026-.043-.034-.026-.017-.043-.026-.034-.026-.051-.043l-.043-.043a1.474,1.474,0,0,1-.231-.231,1.132,1.132,0,0,1-.171-.274,1.156,1.156,0,0,1-.094-.291,2.031,2.031,0,0,1-.026-.333,1.525,1.525,0,0,1,.137-.667,1.614,1.614,0,0,1,.41-.53,2.3,2.3,0,0,1,.59-.342,1.885,1.885,0,0,1,.667-.12,1.734,1.734,0,0,1,.633.12,1.88,1.88,0,0,1,.564.368,1.933,1.933,0,0,1,.4.53,1.427,1.427,0,0,1,.137.633v-.017h-1.188Z" transform="translate(-198.597 -34.093)" fill="#f58220"/>
        <path id="Path_118335" data-name="Path 118335" d="M232.44,49.72h1.291v1.171H232.44Zm0,1.8h1.291v5.376H232.44Z" transform="translate(-199.386 -33.821)" fill="#f58220"/>
        <path id="Path_118336" data-name="Path 118336" d="M235.17,49.72h1.291v2.359h.017a1.449,1.449,0,0,1,.248-.265,1.678,1.678,0,0,1,.316-.205,2.739,2.739,0,0,1,.368-.145,1.987,1.987,0,0,1,.376-.085h.043a.109.109,0,0,0,.051-.009h.128a.064.064,0,0,0,.043-.009h.085a2.48,2.48,0,0,1,1.077.222,2.708,2.708,0,0,1,.863.641,2.866,2.866,0,0,1,.564.932,2.927,2.927,0,0,1,.188,1.068,1.086,1.086,0,0,1-.009.171,1.051,1.051,0,0,1-.017.171c-.009.06-.017.12-.026.171s-.026.12-.043.171c-.026.12-.06.231-.094.342s-.085.222-.137.333a2.623,2.623,0,0,1-.171.308,3.179,3.179,0,0,1-.2.274,2.41,2.41,0,0,1-.88.667,2.888,2.888,0,0,1-.53.154,2.988,2.988,0,0,1-.556.06,2.717,2.717,0,0,1-.53-.051,4.2,4.2,0,0,1-.5-.137,1.732,1.732,0,0,1-.427-.274,1.846,1.846,0,0,1-.35-.41l-.017-.017v.727h-1.18Zm2.222,3a1.5,1.5,0,0,0-.521.333,1.372,1.372,0,0,0-.487,1.094,1.8,1.8,0,0,0,.111.658,1.77,1.77,0,0,0,.333.539,1.361,1.361,0,0,0,.521.359,1.8,1.8,0,0,0,.658.12,1.653,1.653,0,0,0,.624-.111,1.4,1.4,0,0,0,.5-.342,1.327,1.327,0,0,0,.316-.513,1.949,1.949,0,0,0,0-1.248,1.6,1.6,0,0,0-.316-.513,1.42,1.42,0,0,0-.5-.35,1.623,1.623,0,0,0-.624-.12v-.017A1.717,1.717,0,0,0,237.392,52.72Z" transform="translate(-199.783 -33.821)" fill="#f58220"/>
        <path id="Path_118337" data-name="Path 118337" d="M242.66,49.72h1.291v7.172H242.66Z" transform="translate(-200.87 -33.821)" fill="#f58220"/>
        <path id="Path_118338" data-name="Path 118338" d="M246.476,55.051a1.638,1.638,0,0,0,.205.444,1.488,1.488,0,0,0,.744.539,1.675,1.675,0,0,0,.462.068,2.535,2.535,0,0,0,.359-.026,1.486,1.486,0,0,0,.333-.094,1.318,1.318,0,0,0,.291-.145.99.99,0,0,0,.222-.2l1.427-.017a2.1,2.1,0,0,1-.376.675,2.813,2.813,0,0,1-.615.564,3.17,3.17,0,0,1-.769.368,2.931,2.931,0,0,1-.821.12,3.035,3.035,0,0,1-1.094-.2,2.9,2.9,0,0,1-1.539-1.513,2.866,2.866,0,0,1-.205-1.094,2.954,2.954,0,0,1,.205-1.111,3.023,3.023,0,0,1,1.539-1.581,2.8,2.8,0,0,1,1.111-.214,2.554,2.554,0,0,1,1.06.214,2.77,2.77,0,0,1,.889.641,2.966,2.966,0,0,1,.6.915,2.754,2.754,0,0,1,.205,1.06.647.647,0,0,1-.009.128.5.5,0,0,1-.017.12c-.009.043-.009.077-.017.12a.575.575,0,0,1-.017.12c-.009.017-.009.026-.017.034s-.009.017-.009.034v.043h-4.146Zm2.94-1.145a1.6,1.6,0,0,0-.222-.41,1.378,1.378,0,0,0-.342-.325,1.509,1.509,0,0,0-.427-.205,1.7,1.7,0,0,0-.479-.068h-.068a1.383,1.383,0,0,0-.453.094,1.8,1.8,0,0,0-.419.222,1.52,1.52,0,0,0-.342.316,1.194,1.194,0,0,0-.205.4v-.017h2.958Z" transform="translate(-201.225 -34.1)" fill="#f58220"/>
      </g>
      <path id="Path_118339" data-name="Path 118339" d="M191.085,48.848c-2.188-.684-3.855-2.59-3.855-6.736,0-6.889,3.214-11.078,6.6-11.078a4.94,4.94,0,0,1,1.975.359h1.7a5.958,5.958,0,0,0-4.428-1.624c-6.026,0-10.616,5.855-10.616,11.078,0,5.932,4.539,8.539,8.616,9.223V48.848Z" transform="translate(-157.518 -5.725)" fill="#f58220"/>
      <rect id="Rectangle_61563" data-name="Rectangle 61563" width="0.521" transform="translate(45.824 44.294)" fill="#231f20"/>
      <path id="Path_118340" data-name="Path 118340" d="M209.345,57.915a24.291,24.291,0,0,1-27.66-7.625,10.977,10.977,0,0,1-1.915,2.12,25.9,25.9,0,0,0,33.986,5.513h-4.411Z" transform="translate(-157.127 -8.705)" fill="#f58220"/>
    </g>
  </g>
</svg>
