<svg width="225" height="57" viewBox="0 0 225 57" fill="none" xmlns="http://www.w3.org/2000/svg">
<g clip-path="url(#clip0_222_535)">
<path d="M85.6901 29.4167C84.704 30.5304 83.4313 31.3584 82.0075 31.8126C80.317 32.3968 78.5369 32.6858 76.7465 32.6667C74.8823 32.7049 73.0412 32.252 71.4119 31.3542C69.8731 30.4674 68.6436 29.1375 67.8871 27.5417C67.0168 25.7081 66.5779 23.7029 66.6034 21.6771V20.0938C66.5572 18.0333 66.9591 15.987 67.7819 14.0938C68.4963 12.4879 69.6847 11.1334 71.191 10.2084C72.782 9.27939 74.6055 8.81364 76.4519 8.86464C78.7735 8.73848 81.0643 9.43659 82.9124 10.8334C84.5638 12.3024 85.5622 14.3578 85.6901 16.5521H81.0184C80.9145 15.4425 80.4102 14.407 79.598 13.6355C78.7312 12.9808 77.656 12.6556 76.5677 12.7188C75.8314 12.6765 75.0969 12.8266 74.4376 13.1538C73.7784 13.481 73.2176 13.974 72.8113 14.5834C71.86 16.2223 71.4206 18.1036 71.5487 19.9896V21.4688C71.4125 23.4028 71.9027 25.3295 72.9481 26.9688C73.4228 27.589 74.0447 28.0836 74.7586 28.4088C75.4726 28.7341 76.2566 28.8799 77.0411 28.8334C78.4334 28.9667 79.8232 28.5554 80.9132 27.6876V23.6876H76.4835V20.1771H85.6901V29.4167Z" fill="#3C3C3B"/>
<path d="M89.6675 32.3438V9.18754H97.8535C100.125 9.03787 102.386 9.603 104.314 10.8021C105.044 11.3512 105.627 12.0698 106.011 12.8945C106.394 13.7193 106.567 14.6249 106.513 15.5313C106.536 16.5973 106.227 17.6444 105.629 18.5313C105.031 19.4046 104.169 20.0682 103.167 20.4271C104.295 20.686 105.299 21.3226 106.008 22.2292C106.725 23.1848 107.096 24.3518 107.06 25.5417C107.129 26.4877 106.975 27.4366 106.61 28.3134C106.245 29.1903 105.678 29.971 104.956 30.5938C103.169 31.8455 101.007 32.4623 98.8215 32.3438H89.6675ZM94.4865 18.8855H98.0534C100.487 18.8438 101.705 17.8855 101.705 16.0105C101.745 15.5862 101.682 15.1587 101.52 14.7636C101.359 14.3685 101.105 14.0174 100.779 13.7396C99.9012 13.2109 98.8774 12.9703 97.8535 13.0521H94.4865V18.8855ZM94.4865 22.2605V28.5105H98.6216C99.5771 28.5654 100.521 28.281 101.284 27.7084C101.601 27.4339 101.851 27.0915 102.016 26.7071C102.18 26.3227 102.253 25.9063 102.231 25.4896C102.231 23.3646 101.122 22.2882 98.9057 22.2605H94.4865Z" fill="#3C3C3B"/>
<path d="M122.633 26.2708C122.656 25.8716 122.58 25.4727 122.412 25.1094C122.243 24.7461 121.986 24.4294 121.665 24.1875C120.595 23.5014 119.423 22.9848 118.192 22.6562C116.825 22.2457 115.498 21.7159 114.226 21.0729C111.574 19.6562 110.238 17.7395 110.238 15.3333C110.217 14.1326 110.586 12.957 111.29 11.9791C112.076 10.9484 113.136 10.1548 114.352 9.68745C115.779 9.11675 117.306 8.83345 118.845 8.85412C120.384 8.82862 121.911 9.13798 123.317 9.76037C124.554 10.2991 125.609 11.1775 126.357 12.2916C127.075 13.4032 127.442 14.7017 127.41 16.0208H122.591C122.613 15.5561 122.53 15.0923 122.348 14.6634C122.166 14.2345 121.889 13.8513 121.538 13.5416C120.732 12.9135 119.722 12.5987 118.697 12.6562C117.725 12.5993 116.761 12.8591 115.951 13.3958C115.639 13.6162 115.385 13.9089 115.213 14.2484C115.04 14.5878 114.954 14.9638 114.962 15.3437C114.973 15.7319 115.085 16.1108 115.288 16.4432C115.49 16.7756 115.777 17.05 116.12 17.2395C117.169 17.8777 118.307 18.3619 119.497 18.677C121.705 19.2094 123.756 20.2477 125.484 21.7083C126.099 22.2899 126.585 22.9926 126.909 23.7712C127.234 24.5499 127.39 25.3871 127.368 26.2291C127.42 27.1311 127.251 28.0323 126.875 28.8557C126.5 29.6792 125.929 30.4005 125.211 30.9583C123.391 32.1783 121.219 32.778 119.024 32.6666C117.334 32.6858 115.66 32.3522 114.11 31.6875C112.747 31.1263 111.572 30.1945 110.722 29C109.937 27.8363 109.533 26.4615 109.564 25.0625H114.394C114.394 27.618 115.937 28.8958 119.024 28.8958C119.97 28.9528 120.911 28.7082 121.707 28.1979C122.01 27.9776 122.254 27.6863 122.415 27.3499C122.577 27.0136 122.652 26.6428 122.633 26.2708V26.2708Z" fill="#3C3C3B"/>
<path d="M144.466 24.1875V32.3438H139.646V9.18751H148.769C150.366 9.15498 151.949 9.48271 153.399 10.1458C154.676 10.7244 155.749 11.6675 156.482 12.8542C157.201 14.0647 157.566 15.4499 157.534 16.8542C157.583 17.8675 157.397 18.8786 156.988 19.8089C156.579 20.7393 155.959 21.5639 155.177 22.2188C153.314 23.6267 151.003 24.3254 148.664 24.1875H144.466ZM144.466 20.3229H148.769C149.819 20.3958 150.859 20.0762 151.684 19.4271C152.037 19.1065 152.315 18.7124 152.497 18.273C152.679 17.8335 152.761 17.3597 152.736 16.8854C152.753 16.3809 152.669 15.878 152.488 15.406C152.308 14.9339 152.034 14.502 151.684 14.1354C151.315 13.7832 150.877 13.5091 150.398 13.33C149.918 13.1509 149.407 13.0705 148.895 13.0938H144.476L144.466 20.3229Z" fill="#3C3C3B"/>
<path d="M165.194 28.5104H175.421V32.3437H160.375V9.1875H165.194V28.5104Z" fill="#3C3C3B"/>
<path d="M195.339 9.1875V24.4375C195.397 25.5509 195.212 26.6637 194.798 27.7006C194.385 28.7374 193.751 29.6743 192.94 30.4479C191.126 32.0039 188.771 32.7996 186.374 32.6667C184.029 32.7763 181.727 32.0105 179.924 30.5208C179.11 29.7687 178.469 28.852 178.044 27.8329C177.619 26.8139 177.421 25.7163 177.462 24.6146V9.1875H182.281V24.4687C182.227 25.0679 182.297 25.6717 182.487 26.2431C182.677 26.8145 182.983 27.3415 183.386 27.7917C184.22 28.5239 185.314 28.8986 186.427 28.8333C189.141 28.8333 190.509 27.4167 190.551 24.6042V9.1875H195.339Z" fill="#3C3C3B"/>
<path d="M211.248 26.2708C211.272 25.8715 211.196 25.4727 211.027 25.1094C210.858 24.7461 210.602 24.4294 210.28 24.1874C209.21 23.5014 208.039 22.9848 206.808 22.6562C205.441 22.2457 204.113 21.7159 202.841 21.0729C200.189 19.6666 198.864 17.7083 198.864 15.3437C198.843 14.143 199.212 12.9674 199.916 11.9895C200.703 10.9561 201.768 10.1621 202.988 9.69786C204.411 9.12663 205.935 8.84328 207.471 8.86452C209.01 8.83663 210.537 9.1461 211.942 9.77077C213.181 10.3064 214.238 11.1855 214.983 12.302C215.701 13.4136 216.068 14.7121 216.035 16.0312H211.216C211.238 15.5665 211.155 15.1027 210.973 14.6738C210.791 14.2449 210.515 13.8617 210.164 13.552C209.358 12.9239 208.348 12.6091 207.323 12.6666C206.351 12.6097 205.386 12.8695 204.577 13.4062C204.267 13.6284 204.016 13.9217 203.846 14.2609C203.675 14.6002 203.59 14.9753 203.599 15.3541C203.607 15.7415 203.717 16.1202 203.918 16.4526C204.119 16.7851 204.404 17.0599 204.745 17.2499C205.796 17.8862 206.934 18.3702 208.123 18.6874C210.334 19.2201 212.388 20.2583 214.12 21.7187C214.733 22.302 215.216 23.0053 215.538 23.7837C215.861 24.5621 216.016 25.3985 215.993 26.2395C216.028 27.1515 215.837 28.0581 215.437 28.8804C215.038 29.7028 214.441 30.4161 213.7 30.9583C211.88 32.1783 209.708 32.778 207.513 32.6666C205.823 32.6858 204.149 32.3522 202.599 31.6874C201.236 31.1262 200.061 30.1945 199.211 28.9999C198.43 27.8343 198.026 26.4609 198.054 25.0624H202.883C202.883 27.618 204.426 28.8958 207.513 28.8958C208.459 28.9528 209.4 28.7082 210.196 28.1979C210.522 27.992 210.791 27.7069 210.975 27.3696C211.159 27.0324 211.253 26.6541 211.248 26.2708V26.2708Z" fill="#3C3C3B"/>
<path d="M80.0926 47.2188C79.7889 47.6512 79.3595 47.9818 78.8615 48.1667C78.2696 48.3853 77.6413 48.4914 77.0097 48.4792C76.3402 48.4912 75.6807 48.318 75.1052 47.9792C74.552 47.6427 74.1096 47.1541 73.832 46.573C73.5205 45.9221 73.3622 45.2098 73.3691 44.4896V43.75C73.2769 42.6325 73.6027 41.5204 74.2845 40.625C74.6062 40.2664 75.0071 39.9859 75.4559 39.8052C75.9048 39.6246 76.3896 39.5487 76.8729 39.5834C77.6655 39.5436 78.4461 39.7877 79.072 40.2709C79.666 40.7638 80.0432 41.466 80.1241 42.2292H78.9141C78.8931 41.9783 78.8216 41.7342 78.7038 41.5111C78.586 41.2881 78.4242 41.0906 78.2281 40.9304C78.032 40.7702 77.8054 40.6505 77.5618 40.5784C77.3182 40.5063 77.0625 40.4832 76.8097 40.5105C76.4734 40.4952 76.1383 40.5601 75.8325 40.6997C75.5268 40.8393 75.2593 41.0494 75.0526 41.3125C74.6102 42.0087 74.4003 42.8251 74.4528 43.6459V44.3542C74.4076 45.1799 74.6407 45.997 75.1157 46.6771C75.3279 46.9534 75.6039 47.1752 75.9207 47.3239C76.2375 47.4725 76.5857 47.5437 76.936 47.5313C77.3198 47.5358 77.7024 47.4867 78.0724 47.3855C78.3982 47.3024 78.6914 47.1246 78.9141 46.875V44.9792H76.9255V44.0521H80.0821L80.0926 47.2188Z" fill="#6F6F6E"/>
<path d="M83.123 48.3541H82.0708V39.2291H83.123V48.3541Z" fill="#6F6F6E"/>
<path d="M84.5749 45.0833C84.5658 44.4958 84.6955 43.9144 84.9537 43.3854C85.1864 42.9062 85.5512 42.5017 86.0059 42.2187C86.4663 41.9453 86.9947 41.8046 87.5316 41.8125C87.9276 41.8043 88.3207 41.8811 88.684 42.0376C89.0472 42.194 89.3719 42.4264 89.6359 42.7187C90.2181 43.3888 90.5225 44.2522 90.4882 45.1354V45.2187C90.4937 45.7913 90.3678 46.3576 90.1199 46.875C89.8922 47.3575 89.5263 47.7632 89.0678 48.0416C88.5979 48.3213 88.0586 48.4656 87.5105 48.4583C87.1137 48.4651 86.7201 48.3867 86.3568 48.2285C85.9935 48.0702 85.6692 47.8359 85.4061 47.5416C84.8351 46.8711 84.5419 46.0113 84.5854 45.1354L84.5749 45.0833ZM85.6902 45.2187C85.6594 45.8282 85.8373 46.4302 86.1953 46.9271C86.3535 47.1302 86.5568 47.2948 86.7894 47.408C87.0219 47.5212 87.2776 47.5801 87.5368 47.5801C87.796 47.5801 88.0517 47.5212 88.2843 47.408C88.5169 47.2948 88.7201 47.1302 88.8784 46.9271C89.2674 46.3915 89.4637 45.7423 89.436 45.0833C89.4638 44.4726 89.2821 43.8705 88.9205 43.375C88.7636 43.1553 88.5528 42.9788 88.308 42.8622C88.0631 42.7456 87.7923 42.6926 87.521 42.7083C87.2636 42.7007 87.0082 42.7556 86.7771 42.8681C86.546 42.9807 86.3463 43.1476 86.1953 43.3541C85.8211 43.9023 85.6432 44.5588 85.6902 45.2187V45.2187Z" fill="#6F6F6E"/>
<path d="M97.4222 45.2187C97.4628 46.0599 97.2224 46.8909 96.7383 47.5833C96.528 47.8695 96.2505 48.1007 95.9296 48.2568C95.6088 48.4129 95.2543 48.4892 94.897 48.4791C94.5341 48.4978 94.1721 48.4288 93.8422 48.2782C93.5123 48.1276 93.2243 47.8998 93.003 47.6145L92.9399 48.3541H91.8877V39.2291H92.9399V42.6354C93.1614 42.3636 93.4445 42.1475 93.7663 42.0045C94.0881 41.8615 94.4394 41.7957 94.7917 41.8125C95.1767 41.7735 95.5653 41.8358 95.9181 41.9931C96.271 42.1504 96.5757 42.3971 96.8014 42.7083C97.2844 43.4203 97.5207 44.2685 97.4748 45.125L97.4222 45.2187ZM96.3069 45.0937C96.3427 44.4841 96.1924 43.878 95.8755 43.3541C95.7342 43.1549 95.5444 42.9941 95.3237 42.8866C95.103 42.7792 94.8585 42.7286 94.6129 42.7395C94.2729 42.7286 93.938 42.8231 93.655 43.0099C93.372 43.1966 93.1551 43.4663 93.0346 43.7812V46.5625C93.1609 46.8755 93.3806 47.143 93.6645 47.3291C93.9484 47.5153 94.2829 47.6112 94.6234 47.6041C94.8659 47.6134 95.1068 47.562 95.3238 47.4545C95.5409 47.3471 95.727 47.1872 95.865 46.9895C96.2123 46.4203 96.3671 45.7561 96.3069 45.0937V45.0937Z" fill="#6F6F6E"/>
<path d="M102.788 48.3541C102.703 48.1372 102.65 47.9092 102.631 47.6771C102.398 47.9316 102.114 48.1346 101.796 48.2728C101.479 48.411 101.136 48.4813 100.789 48.4792C100.214 48.4984 99.6511 48.3053 99.2109 47.9375C99.0114 47.7701 98.8521 47.5607 98.7447 47.3247C98.6373 47.0886 98.5845 46.8318 98.5901 46.5729C98.5788 46.269 98.644 45.967 98.78 45.6942C98.9159 45.4215 99.1182 45.1865 99.3688 45.0104C100.015 44.6069 100.773 44.4139 101.536 44.4583H102.588V43.9583C102.598 43.7901 102.572 43.6217 102.512 43.464C102.452 43.3062 102.36 43.1624 102.241 43.0417C102.099 42.9154 101.933 42.8197 101.752 42.7605C101.57 42.7013 101.379 42.68 101.189 42.6979C100.815 42.6725 100.443 42.7755 100.137 42.9896C100.017 43.0685 99.9174 43.1752 99.8478 43.3003C99.7781 43.4255 99.7401 43.5655 99.737 43.7083H98.7269C98.7343 43.3695 98.8566 43.0429 99.0741 42.7812C99.3197 42.4694 99.6422 42.2255 100.011 42.0729C100.418 41.8939 100.859 41.8051 101.305 41.8125C101.939 41.7768 102.564 41.9733 103.062 42.3646C103.277 42.5581 103.447 42.7949 103.561 43.059C103.675 43.3232 103.731 43.6085 103.725 43.8958V46.875C103.703 47.3545 103.782 47.8334 103.956 48.2812V48.375L102.788 48.3541ZM100.947 47.5208C101.295 47.5182 101.636 47.4248 101.936 47.25C102.231 47.0953 102.467 46.8505 102.609 46.5521V45.2396H101.747C100.389 45.2396 99.7055 45.6354 99.7055 46.4167C99.6998 46.569 99.7279 46.7207 99.7879 46.8611C99.8479 47.0015 99.9383 47.1271 100.053 47.2292C100.307 47.4281 100.623 47.5314 100.947 47.5208V47.5208Z" fill="#6F6F6E"/>
<path d="M106.639 48.3541H105.524V39.2291H106.639V48.3541Z" fill="#6F6F6E"/>
<path d="M111.9 48.3541V39.7083H114.752C115.499 39.6616 116.241 39.8672 116.856 40.2916C117.103 40.5027 117.298 40.7679 117.424 41.0662C117.55 41.3645 117.604 41.6878 117.582 42.0104C117.577 42.3864 117.452 42.7512 117.224 43.052C116.982 43.3734 116.654 43.6222 116.277 43.7708C116.726 43.8909 117.122 44.1546 117.403 44.5208C117.693 44.8976 117.849 45.3594 117.845 45.8333C117.863 46.1747 117.804 46.5158 117.671 46.8313C117.538 47.1468 117.335 47.4287 117.077 47.6562C116.479 48.1221 115.732 48.3589 114.973 48.3229L111.9 48.3541ZM113.047 43.3958H114.794C115.226 43.4177 115.652 43.2846 115.993 43.0208C116.134 42.8857 116.247 42.7239 116.324 42.5449C116.4 42.366 116.44 42.1735 116.44 41.9791C116.44 41.7847 116.4 41.5923 116.324 41.4133C116.247 41.2343 116.134 41.0725 115.993 40.9375C115.613 40.6922 115.162 40.5753 114.709 40.6041H113.005L113.047 43.3958ZM113.047 44.3125V47.4375H114.951C115.413 47.4589 115.867 47.3105 116.225 47.0208C116.387 46.8704 116.514 46.6854 116.594 46.4797C116.674 46.274 116.706 46.053 116.688 45.8333C116.688 44.7916 116.109 44.2708 114.973 44.2708L113.047 44.3125Z" fill="#6F6F6E"/>
<path d="M123.432 47.7188C123.194 47.9781 122.901 48.1812 122.573 48.3128C122.245 48.4444 121.891 48.5013 121.538 48.4792C121.248 48.5051 120.956 48.4682 120.681 48.371C120.407 48.2739 120.157 48.1189 119.949 47.9167C119.549 47.4188 119.35 46.7913 119.392 46.1563V41.9896H120.507V46.1563C120.507 47.125 120.907 47.6146 121.707 47.6146C122.052 47.6521 122.401 47.5819 122.705 47.4139C123.009 47.2459 123.252 46.9883 123.401 46.6771V41.9271H124.453V48.3542H123.401L123.432 47.7188Z" fill="#6F6F6E"/>
<path d="M129.977 46.6563C129.983 46.5205 129.954 46.3854 129.893 46.2635C129.833 46.1416 129.742 46.0366 129.63 45.9583C129.268 45.7428 128.868 45.5978 128.451 45.5313C127.989 45.4472 127.54 45.3036 127.115 45.1042C126.824 44.9691 126.571 44.7652 126.378 44.5104C126.219 44.2695 126.138 43.9858 126.147 43.6979C126.145 43.4374 126.205 43.1802 126.322 42.9468C126.439 42.7134 126.61 42.5105 126.82 42.3542C127.313 41.9772 127.924 41.7853 128.546 41.8125C129.191 41.7826 129.825 41.9821 130.335 42.375C130.555 42.5464 130.732 42.7667 130.851 43.0182C130.97 43.2697 131.027 43.5454 131.019 43.8229H129.903C129.9 43.6734 129.865 43.5263 129.8 43.3915C129.735 43.2566 129.641 43.1373 129.525 43.0417C129.249 42.82 128.901 42.7052 128.546 42.7188C128.21 42.6974 127.876 42.7891 127.599 42.9792C127.489 43.0549 127.4 43.1563 127.339 43.2745C127.279 43.3926 127.249 43.5238 127.252 43.6563C127.245 43.7769 127.271 43.8972 127.329 44.0038C127.386 44.1104 127.473 44.1992 127.578 44.2604C127.938 44.4475 128.325 44.5776 128.725 44.6458C129.189 44.7427 129.64 44.8894 130.072 45.0833C130.374 45.2193 130.635 45.4312 130.829 45.6979C131.004 45.9564 131.092 46.2623 131.082 46.5729C131.088 46.8422 131.028 47.1089 130.907 47.3502C130.786 47.5915 130.608 47.8002 130.387 47.9583C129.858 48.3242 129.222 48.5072 128.578 48.4792C128.103 48.4893 127.631 48.3932 127.199 48.1979C126.821 48.0367 126.496 47.7731 126.263 47.4375C126.048 47.1314 125.931 46.7686 125.926 46.3958H126.978C126.98 46.5664 127.022 46.7341 127.101 46.8859C127.179 47.0377 127.292 47.1695 127.431 47.2708C127.735 47.4915 128.106 47.6052 128.483 47.5938C128.851 47.6193 129.219 47.532 129.535 47.3438C129.668 47.2835 129.78 47.1866 129.859 47.0646C129.937 46.9426 129.978 46.8008 129.977 46.6563V46.6563Z" fill="#6F6F6E"/>
<path d="M132.513 40.2291C132.506 40.0623 132.563 39.8991 132.671 39.7708C132.735 39.7072 132.812 39.6584 132.898 39.6278C132.983 39.5972 133.075 39.5856 133.165 39.5937C133.255 39.587 133.346 39.5993 133.431 39.6298C133.517 39.6603 133.594 39.7084 133.66 39.7708C133.77 39.8981 133.83 40.0611 133.828 40.2291C133.831 40.3144 133.816 40.3994 133.784 40.4783C133.751 40.5573 133.702 40.6283 133.639 40.6867C133.576 40.745 133.501 40.7892 133.419 40.8163C133.337 40.8434 133.251 40.8527 133.165 40.8437C133.075 40.8518 132.983 40.8402 132.898 40.8096C132.812 40.779 132.735 40.7302 132.671 40.6666C132.563 40.5463 132.507 40.3896 132.513 40.2291V40.2291ZM133.712 48.3541H132.576V41.927H133.691L133.712 48.3541Z" fill="#6F6F6E"/>
<path d="M136.553 41.927V42.7395C136.779 42.4419 137.073 42.2024 137.412 42.041C137.751 41.8797 138.124 41.8013 138.5 41.8124C139.867 41.8124 140.604 42.5729 140.604 44.1041V48.3541H139.552V44.1041C139.577 43.7289 139.461 43.3578 139.226 43.0624C139.094 42.9432 138.94 42.8521 138.771 42.7947C138.603 42.7374 138.425 42.715 138.247 42.7291C137.908 42.7216 137.575 42.824 137.3 43.0208C137.025 43.2123 136.804 43.4706 136.658 43.7708V48.3437H135.553V41.927H136.553Z" fill="#6F6F6E"/>
<path d="M145.013 48.4792C144.621 48.486 144.231 48.4128 143.869 48.264C143.507 48.1153 143.18 47.8942 142.908 47.6146C142.34 46.9875 142.046 46.164 142.087 45.3229V45.1146C142.075 44.5246 142.201 43.9397 142.456 43.4063C142.687 42.9261 143.052 42.5213 143.508 42.2396C143.93 41.957 144.429 41.808 144.939 41.8125C145.309 41.7915 145.678 41.8548 146.019 41.9975C146.36 42.1401 146.664 42.3584 146.906 42.6354C147.418 43.3155 147.668 44.1539 147.611 45V45.4584H143.213C143.203 46.0193 143.401 46.5645 143.771 46.9896C143.942 47.1801 144.153 47.3311 144.389 47.4319C144.626 47.5326 144.882 47.5808 145.139 47.5729C145.504 47.5944 145.868 47.5151 146.191 47.3438C146.465 47.1751 146.707 46.96 146.906 46.7084L147.58 47.2292C147.311 47.6527 146.929 47.9938 146.475 48.2146C146.022 48.4353 145.515 48.5269 145.013 48.4792V48.4792ZM144.876 42.7084C144.664 42.7042 144.455 42.7448 144.26 42.8275C144.066 42.9101 143.892 43.0329 143.75 43.1875C143.418 43.5657 143.222 44.0418 143.192 44.5417H146.443V44.4584C146.441 43.9884 146.278 43.5332 145.981 43.1667C145.843 43.0129 145.672 42.8919 145.481 42.8125C145.29 42.7331 145.083 42.6976 144.876 42.7084V42.7084Z" fill="#6F6F6E"/>
<path d="M152.62 46.6563C152.626 46.5205 152.597 46.3854 152.536 46.2635C152.476 46.1416 152.385 46.0366 152.273 45.9583C151.912 45.7408 151.512 45.5957 151.094 45.5313C150.632 45.4472 150.183 45.3036 149.758 45.1042C149.467 44.9691 149.214 44.7652 149.021 44.5104C148.862 44.2695 148.781 43.9858 148.79 43.6979C148.788 43.4374 148.848 43.1802 148.965 42.9468C149.082 42.7134 149.253 42.5105 149.463 42.3542C149.956 41.9772 150.567 41.7853 151.189 41.8125C151.834 41.7826 152.468 41.9821 152.978 42.375C153.198 42.5464 153.375 42.7667 153.494 43.0182C153.613 43.2697 153.67 43.5454 153.662 43.8229H152.567C152.565 43.6734 152.529 43.5263 152.464 43.3915C152.399 43.2566 152.305 43.1373 152.189 43.0417C151.913 42.82 151.565 42.7052 151.21 42.7188C150.874 42.699 150.541 42.7906 150.263 42.9792C150.153 43.0549 150.064 43.1563 150.003 43.2745C149.943 43.3926 149.913 43.5238 149.916 43.6563C149.909 43.7769 149.935 43.8972 149.993 44.0038C150.051 44.1104 150.137 44.1992 150.242 44.2604C150.602 44.4475 150.989 44.5776 151.389 44.6458C151.853 44.7427 152.304 44.8894 152.736 45.0833C153.041 45.219 153.306 45.4308 153.504 45.6979C153.67 45.9597 153.754 46.2641 153.746 46.5729C153.752 46.8422 153.692 47.1089 153.571 47.3502C153.45 47.5915 153.272 47.8002 153.051 47.9583C152.522 48.3242 151.886 48.5072 151.242 48.4792C150.767 48.4893 150.295 48.3932 149.863 48.1979C149.487 48.0339 149.163 47.7709 148.927 47.4375C148.712 47.1314 148.595 46.7686 148.59 46.3958H149.695C149.697 46.5664 149.739 46.7341 149.817 46.8859C149.896 47.0377 150.009 47.1695 150.147 47.2708C150.452 47.4915 150.822 47.6052 151.2 47.5938C151.568 47.6193 151.935 47.532 152.252 47.3438C152.371 47.2735 152.468 47.1722 152.533 47.051C152.598 46.9298 152.628 46.7932 152.62 46.6563V46.6563Z" fill="#6F6F6E"/>
<path d="M158.965 46.6563C158.97 46.5215 158.943 46.3874 158.884 46.2657C158.825 46.144 158.737 46.0384 158.628 45.9583C158.262 45.7431 157.859 45.5982 157.439 45.5313C156.977 45.4456 156.528 45.3021 156.103 45.1042C155.814 44.9692 155.565 44.7651 155.377 44.5104C155.213 44.2707 155.129 43.9869 155.135 43.6979C155.135 43.4378 155.196 43.1814 155.313 42.9484C155.43 42.7155 155.599 42.5121 155.808 42.3542C156.301 41.9788 156.912 41.7871 157.534 41.8125C158.179 41.7826 158.813 41.9821 159.322 42.375C159.544 42.5459 159.723 42.7658 159.843 43.0173C159.964 43.2687 160.023 43.5446 160.017 43.8229H158.88C158.876 43.6726 158.839 43.5249 158.772 43.3901C158.705 43.2552 158.609 43.1364 158.491 43.0417C158.216 42.8191 157.868 42.7042 157.513 42.7188C157.176 42.699 156.843 42.7906 156.566 42.9792C156.458 43.0566 156.372 43.1587 156.313 43.2767C156.254 43.3946 156.225 43.5249 156.229 43.6563C156.222 43.7757 156.247 43.8949 156.303 44.0012C156.359 44.1075 156.442 44.197 156.545 44.2604C156.904 44.4475 157.291 44.5776 157.691 44.6458C158.155 44.7412 158.607 44.8879 159.038 45.0833C159.344 45.219 159.608 45.4308 159.806 45.6979C159.977 45.9576 160.061 46.2634 160.048 46.5729C160.054 46.8422 159.994 47.1089 159.873 47.3502C159.752 47.5915 159.574 47.8002 159.354 47.9583C158.828 48.3227 158.196 48.5057 157.555 48.4792C157.08 48.4893 156.608 48.3932 156.176 48.1979C155.797 48.0341 155.469 47.7713 155.229 47.4375C155.014 47.1314 154.897 46.7686 154.893 46.3958H156.008C156.008 46.5656 156.048 46.7331 156.125 46.885C156.201 47.0369 156.313 47.169 156.45 47.2708C156.755 47.4908 157.125 47.6044 157.502 47.5938C157.87 47.6193 158.238 47.532 158.554 47.3438C158.68 47.2781 158.785 47.179 158.858 47.0576C158.93 46.9362 158.967 46.7973 158.965 46.6563V46.6563Z" fill="#6F6F6E"/>
<path d="M167.582 44.5C166.794 44.3148 166.057 43.9591 165.425 43.4584C165.208 43.2683 165.036 43.0339 164.919 42.7713C164.803 42.5087 164.746 42.2242 164.752 41.9375C164.746 41.6124 164.817 41.2904 164.96 40.9973C165.102 40.7043 165.312 40.4484 165.572 40.25C166.174 39.7914 166.918 39.5556 167.677 39.5834C168.23 39.5729 168.777 39.6907 169.276 39.9271C169.71 40.1387 170.075 40.4673 170.328 40.875C170.586 41.2688 170.721 41.7288 170.718 42.198H169.56C169.572 41.9675 169.532 41.7372 169.445 41.5232C169.358 41.3092 169.225 41.1165 169.055 40.9584C168.655 40.6801 168.182 40.5247 167.693 40.5117C167.205 40.4987 166.723 40.6287 166.309 40.8855C166.149 41.0071 166.021 41.1655 165.937 41.347C165.852 41.5285 165.814 41.7276 165.825 41.9271C165.827 42.1006 165.869 42.2714 165.947 42.4266C166.025 42.5818 166.138 42.7173 166.277 42.823C166.746 43.1394 167.271 43.3656 167.824 43.4896C168.417 43.6432 168.99 43.8671 169.529 44.1563C169.897 44.3625 170.208 44.656 170.433 45.0105C170.641 45.3567 170.747 45.7536 170.739 46.1563C170.743 46.4824 170.67 46.8049 170.526 47.098C170.381 47.3911 170.17 47.6465 169.907 47.8438C169.262 48.2921 168.485 48.5157 167.698 48.4792C167.118 48.4842 166.544 48.367 166.014 48.1355C165.535 47.9387 165.119 47.6142 164.815 47.198C164.531 46.8067 164.38 46.3361 164.383 45.8542H165.541C165.545 46.1011 165.612 46.3429 165.735 46.5576C165.859 46.7723 166.034 46.953 166.246 47.0834C166.699 47.4116 167.253 47.5736 167.814 47.5417C168.304 47.5721 168.791 47.4442 169.202 47.1771C169.366 47.0579 169.497 46.9002 169.583 46.7183C169.669 46.5364 169.709 46.3361 169.697 46.1355C169.705 45.9485 169.668 45.7624 169.589 45.5922C169.511 45.422 169.393 45.2727 169.244 45.1563C168.731 44.847 168.169 44.6251 167.582 44.5Z" fill="#6F6F6E"/>
<path d="M171.98 45.0833C171.971 44.4958 172.101 43.9144 172.359 43.3854C172.592 42.9062 172.957 42.5017 173.411 42.2187C173.872 41.9453 174.4 41.8046 174.937 41.8125C175.333 41.8043 175.726 41.8811 176.089 42.0376C176.453 42.194 176.777 42.4264 177.041 42.7187C177.612 43.3935 177.905 44.2563 177.862 45.1354V45.2187C177.874 45.7975 177.752 46.3713 177.504 46.8958C177.276 47.3777 176.91 47.7831 176.452 48.0625C175.986 48.3407 175.45 48.485 174.905 48.4791C174.509 48.4853 174.115 48.4066 173.752 48.2484C173.389 48.0902 173.064 47.8562 172.801 47.5625C172.23 46.8919 171.937 46.0322 171.98 45.1562V45.0833ZM173.096 45.2187C173.065 45.8282 173.243 46.4302 173.601 46.9271C173.759 47.1302 173.962 47.2948 174.195 47.408C174.427 47.5212 174.683 47.5801 174.942 47.5801C175.201 47.5801 175.457 47.5212 175.69 47.408C175.922 47.2948 176.126 47.1302 176.284 46.9271C176.652 46.3879 176.829 45.7433 176.789 45.0937C176.822 44.4824 176.64 43.8786 176.273 43.3854C176.12 43.1753 175.917 43.0055 175.682 42.8911C175.448 42.7767 175.188 42.7211 174.926 42.7291C174.669 42.7215 174.414 42.7764 174.183 42.889C173.951 43.0016 173.752 43.1684 173.601 43.375C173.231 43.9174 173.053 44.5658 173.096 45.2187V45.2187Z" fill="#6F6F6E"/>
<path d="M180.503 48.3541H179.388V39.2291H180.503V48.3541Z" fill="#6F6F6E"/>
<path d="M186.29 47.7188C186.052 47.9781 185.758 48.1812 185.431 48.3128C185.103 48.4444 184.749 48.5013 184.396 48.4792C184.103 48.4936 183.811 48.4473 183.537 48.3432C183.264 48.2392 183.015 48.0797 182.807 47.875C182.415 47.3734 182.221 46.7477 182.26 46.1146V41.948H183.375V46.1146C183.375 47.0834 183.775 47.573 184.575 47.573C184.921 47.6104 185.27 47.5403 185.573 47.3722C185.877 47.2042 186.12 46.9467 186.269 46.6355V41.9271H187.374V48.3542H186.322L186.29 47.7188Z" fill="#6F6F6E"/>
<path d="M190.72 40.375V41.9271H191.93V42.7813H190.72V46.7708C190.702 46.9759 190.762 47.1804 190.888 47.3438C190.957 47.4171 191.043 47.4733 191.138 47.5077C191.233 47.5421 191.335 47.5537 191.435 47.5417C191.613 47.537 191.789 47.5125 191.961 47.4688V48.3542C191.685 48.435 191.398 48.4771 191.109 48.4792C190.901 48.4921 190.693 48.4586 190.5 48.381C190.307 48.3035 190.134 48.1839 189.994 48.0313C189.72 47.6653 189.586 47.215 189.615 46.7604V42.7813H188.426V41.9271H189.615V40.375H190.72Z" fill="#6F6F6E"/>
<path d="M193.15 40.2291C193.144 40.0623 193.2 39.8991 193.308 39.7708C193.373 39.7072 193.45 39.6584 193.536 39.6278C193.621 39.5972 193.712 39.5856 193.803 39.5937C193.893 39.587 193.984 39.5993 194.069 39.6298C194.154 39.6603 194.232 39.7084 194.297 39.7708C194.408 39.8981 194.468 40.0611 194.466 40.2291C194.469 40.3144 194.454 40.3994 194.421 40.4783C194.389 40.5573 194.339 40.6283 194.276 40.6867C194.213 40.745 194.139 40.7892 194.057 40.8163C193.975 40.8434 193.888 40.8527 193.803 40.8437C193.712 40.8518 193.621 40.8402 193.536 40.8096C193.45 40.779 193.373 40.7302 193.308 40.6666C193.201 40.5463 193.144 40.3896 193.15 40.2291V40.2291ZM194.35 48.3541H193.235V41.927H194.35V48.3541Z" fill="#6F6F6E"/>
<path d="M195.823 45.0833C195.81 44.4966 195.936 43.9151 196.191 43.3854C196.424 42.9061 196.789 42.5017 197.243 42.2187C197.707 41.9439 198.239 41.8032 198.78 41.8124C199.176 41.8029 199.569 41.8791 199.933 42.0356C200.296 42.1921 200.621 42.4252 200.884 42.7187C201.455 43.3934 201.748 44.2563 201.705 45.1354V45.2187C201.717 45.7975 201.594 46.3712 201.347 46.8958C201.118 47.3776 200.752 47.783 200.295 48.0624C199.828 48.3407 199.293 48.485 198.748 48.4791C198.351 48.4852 197.958 48.4065 197.595 48.2483C197.231 48.0901 196.907 47.8562 196.644 47.5624C196.076 46.8904 195.787 46.0308 195.833 45.1562L195.823 45.0833ZM196.938 45.2187C196.904 45.827 197.079 46.4289 197.433 46.927C197.591 47.1302 197.794 47.2948 198.027 47.408C198.259 47.5212 198.515 47.5801 198.774 47.5801C199.033 47.5801 199.289 47.5212 199.522 47.408C199.754 47.2948 199.958 47.1302 200.116 46.927C200.484 46.3879 200.662 45.7432 200.621 45.0937C200.652 44.4842 200.474 43.8822 200.116 43.3854C199.961 43.1772 199.758 43.0089 199.523 42.8947C199.289 42.7805 199.03 42.7237 198.769 42.7291C198.511 42.7197 198.255 42.7737 198.024 42.8864C197.792 42.9992 197.593 43.167 197.443 43.3749C197.074 43.9173 196.896 44.5657 196.938 45.2187V45.2187Z" fill="#6F6F6E"/>
<path d="M204.219 41.927V42.7395C204.445 42.4419 204.74 42.2024 205.078 42.041C205.417 41.8797 205.79 41.8013 206.166 41.8124C207.534 41.8124 208.27 42.5729 208.27 44.1041V48.3541H207.165V44.1041C207.191 43.7289 207.074 43.3578 206.839 43.0624C206.708 42.9432 206.553 42.8521 206.385 42.7947C206.217 42.7374 206.038 42.715 205.861 42.7291C205.521 42.7216 205.189 42.824 204.914 43.0208C204.639 43.2123 204.418 43.4706 204.272 43.7708V48.3437H203.22V41.927H204.219Z" fill="#6F6F6E"/>
<path d="M213.699 46.6563C213.705 46.5205 213.676 46.3854 213.616 46.2635C213.555 46.1416 213.464 46.0366 213.352 45.9583C212.991 45.7428 212.591 45.5978 212.174 45.5313C211.711 45.4472 211.262 45.3036 210.837 45.1042C210.546 44.9691 210.293 44.7652 210.101 44.5104C209.942 44.2695 209.861 43.9858 209.869 43.6979C209.868 43.4374 209.928 43.1802 210.045 42.9468C210.162 42.7134 210.332 42.5105 210.543 42.3542C211.035 41.9772 211.647 41.7853 212.268 41.8125C212.913 41.7826 213.548 41.9821 214.057 42.375C214.278 42.5464 214.455 42.7667 214.574 43.0182C214.692 43.2697 214.75 43.5454 214.741 43.8229H213.594C213.59 43.6726 213.553 43.5249 213.486 43.3901C213.419 43.2552 213.323 43.1364 213.205 43.0417C212.934 42.8189 212.589 42.7038 212.237 42.7188C211.9 42.6957 211.566 42.7876 211.29 42.9792C211.18 43.0549 211.091 43.1563 211.03 43.2745C210.97 43.3926 210.94 43.5238 210.943 43.6563C210.936 43.7757 210.961 43.8949 211.017 44.0012C211.072 44.1075 211.156 44.197 211.258 44.2604C211.623 44.4453 212.013 44.5752 212.416 44.6458C212.879 44.7427 213.331 44.8894 213.763 45.0833C214.065 45.2193 214.326 45.4312 214.52 45.6979C214.694 45.9564 214.783 46.2623 214.773 46.5729C214.779 46.8422 214.719 47.1089 214.598 47.3502C214.477 47.5915 214.298 47.8002 214.078 47.9583C213.549 48.3242 212.913 48.5072 212.268 48.4792C211.793 48.4893 211.322 48.3932 210.89 48.1979C210.512 48.0367 210.187 47.7731 209.954 47.4375C209.734 47.1338 209.616 46.7694 209.617 46.3958H210.722C210.724 46.5664 210.766 46.7341 210.844 46.8859C210.923 47.0377 211.036 47.1695 211.174 47.2708C211.479 47.4915 211.849 47.6052 212.226 47.5938C212.595 47.6193 212.962 47.532 213.279 47.3438C213.406 47.2786 213.512 47.1799 213.587 47.0586C213.661 46.9373 213.7 46.7981 213.699 46.6563V46.6563Z" fill="#6F6F6E"/>
<path d="M49.0004 0H7.6915C3.4436 0 0 3.40916 0 7.61458V48.5104C0 52.7158 3.4436 56.125 7.6915 56.125H49.0004C53.2483 56.125 56.6919 52.7158 56.6919 48.5104V7.61458C56.6919 3.40916 53.2483 0 49.0004 0Z" fill="#027FDE"/>
<path d="M32.1443 22.1771V9C32.1443 8.75 32.1443 8.75 32.3863 8.75H36.0163V15.3437L36.9107 15.1979C37.7491 15.0678 38.5991 15.0259 39.4465 15.0729C42.2393 15.206 44.9172 16.2139 47.0939 17.9513C49.2706 19.6887 50.8335 22.0658 51.5572 24.7396C51.9067 25.9617 52.0594 27.2308 52.0096 28.5C51.9312 30.869 51.2046 33.1725 49.9075 35.1648C48.6103 37.1571 46.7913 38.7635 44.6443 39.8125C43.5054 40.3696 42.289 40.7557 41.0353 40.9583C40.0334 41.1141 39.0178 41.1665 38.005 41.1146C36.2704 41.0104 34.5741 40.5652 33.015 39.8051C31.456 39.0451 30.0655 37.9852 28.9246 36.6875C27.8472 35.462 27.0088 34.0492 26.4519 32.5208C25.9665 31.2156 25.7069 29.8386 25.6838 28.4479C25.6833 27.1293 25.4224 25.8236 24.9157 24.6042C24.0731 22.6337 22.5311 21.0368 20.5807 20.1146C19.6953 19.6844 18.7412 19.4095 17.7609 19.3021C16.5538 19.1518 15.3284 19.251 14.1621 19.5935C12.9958 19.9359 11.9139 20.5142 10.9848 21.2917C9.46308 22.505 8.41124 24.2013 8.00708 26.0937C7.67197 27.4483 7.67403 28.8631 8.01309 30.2166C8.35215 31.5702 9.01806 32.822 9.95363 33.8646C11.2054 35.3403 12.9272 36.3506 14.8358 36.7292C15.8726 36.9552 16.9426 36.9905 17.9923 36.8333C20.1021 36.5423 22.0362 35.5109 23.4427 33.9271L23.5374 33.8438C23.5374 33.9375 23.5374 33.9896 23.5374 34.0417V47.3021C23.5374 47.4479 23.5374 47.5 23.348 47.5H19.8232C19.6443 47.5 19.6127 47.4375 19.6127 47.2812V40.8333L18.6868 40.9896L17.4873 41.1146C17.214 41.1302 16.9399 41.1302 16.6666 41.1146C13.9217 41.1069 11.2473 40.2533 9.0148 38.6722C6.78231 37.0911 5.10252 34.861 4.20868 32.2917C3.88929 31.3886 3.67742 30.4517 3.57737 29.5C3.47747 28.6104 3.47747 27.7125 3.57737 26.8229C3.85511 24.0605 5.0146 21.4575 6.88763 19.3915C8.76066 17.3256 11.2498 15.9041 13.994 15.3333C14.6033 15.2249 15.2179 15.1484 15.8354 15.1042C16.0774 15.1042 16.3194 15.1042 16.5614 15.1042C19.9731 15.0773 23.2622 16.3619 25.7365 18.6875C27.8415 20.6361 29.2299 23.224 29.6822 26.0417C29.7738 26.6032 29.823 27.1708 29.8295 27.7396C29.8249 29.4087 30.2524 31.0512 31.0711 32.5104C32.1321 34.3562 33.833 35.7588 35.8585 36.4583C36.8681 36.8256 37.9401 36.9954 39.0151 36.9583C40.4913 36.9377 41.9388 36.5512 43.2254 35.8343C44.512 35.1174 45.5967 34.0928 46.3804 32.8542C47.0615 31.8402 47.5005 30.686 47.6641 29.4792C47.9033 28.0578 47.7803 26.5997 47.3063 25.2373C46.8322 23.8748 46.0221 22.6511 44.9494 21.6771C43.6778 20.4487 42.0462 19.6502 40.2882 19.3958C39.8268 19.3095 39.3584 19.2642 38.8888 19.2604C37.5497 19.2641 36.2278 19.5593 35.0168 20.125C33.9916 20.601 33.0697 21.2697 32.3021 22.0937L32.1443 22.1771Z" fill="white"/>
</g>
<defs>
<clipPath id="clip0_222_535">
<rect width="225" height="57" fill="white"/>
</clipPath>
</defs>
</svg>
